<svg width="16" height="13" viewBox="0 0 16 13" fill="none" xmlns="http://www.w3.org/2000/svg">
<mask id="mask0_356_297" style="mask-type:luminance" maskUnits="userSpaceOnUse" x="0" y="0" width="16" height="13">
<rect y="0.5" width="16" height="12" fill="white"/>
</mask>
<g mask="url(#mask0_356_297)">
<path fill-rule="evenodd" clip-rule="evenodd" d="M0 0.5V12.5H16V0.5H0Z" fill="#F7FCFF"/>
<mask id="mask1_356_297" style="mask-type:luminance" maskUnits="userSpaceOnUse" x="0" y="0" width="16" height="13">
<path fill-rule="evenodd" clip-rule="evenodd" d="M0 0.5V12.5H16V0.5H0Z" fill="white"/>
</mask>
<g mask="url(#mask1_356_297)">
<path fill-rule="evenodd" clip-rule="evenodd" d="M0 0.5V4.5H16V0.5H0Z" fill="#BF2714"/>
<path fill-rule="evenodd" clip-rule="evenodd" d="M0 8.5V12.5H16V8.5H0Z" fill="#272727"/>
<path d="M6.13017 5.61011L6.62964 5.633L6.50427 8.36791L6.00479 8.34501L6.13017 5.61011Z" fill="#C09302"/>
<path d="M6.65205 5.77979L7.15125 5.80801L7.02588 8.02567L6.52667 7.99745L6.65205 5.77979Z" fill="#C09302"/>
<path d="M7.17423 5.94604L7.67256 5.98693L7.54718 7.51494L7.04886 7.47405L7.17423 5.94604Z" fill="#C09302"/>
<path d="M9.86983 5.61011L9.37036 5.633L9.49573 8.36791L9.99521 8.34501L9.86983 5.61011Z" fill="#C09302"/>
<path d="M9.34795 5.77979L8.84875 5.80801L8.97412 8.02567L9.47333 7.99745L9.34795 5.77979Z" fill="#C09302"/>
<path d="M8.82577 5.94604L8.32744 5.98693L8.45282 7.51494L8.95114 7.47405L8.82577 5.94604Z" fill="#C09302"/>
<path d="M7.98667 8.16339L7.4993 8.05172L7.70559 7.15137L8.19296 7.26303L7.98667 8.16339Z" fill="#C09302"/>
<path d="M8.35977 8.16339L8.84714 8.05172L8.64085 7.15137L8.15348 7.26303L8.35977 8.16339Z" fill="#C09302"/>
<path d="M8.23608 8.1552H7.73608V7.27124H8.23608V8.1552Z" fill="#C09302"/>
<path d="M7.31738 5.95654L7.81723 5.9688L7.78803 7.15926L7.28818 7.14699L7.31738 5.95654Z" fill="#C09302"/>
<path d="M8.18695 5.95654L8.6868 5.9688L8.65759 7.15926L8.15775 7.14699L8.18695 5.95654Z" fill="#C09302"/>
<path d="M6.66898 8.46136L6.79883 7.97852C7.32935 8.12119 7.73671 8.19175 8.01448 8.19175C8.29226 8.19175 8.69961 8.12119 9.23014 7.97852L9.35999 8.46136C8.7908 8.61443 8.34443 8.69175 8.01448 8.69175C7.68453 8.69175 7.23817 8.61443 6.66898 8.46136Z" fill="#C09302"/>
<path d="M6.14117 5.61133C6.10783 5.28103 6.30115 5.05744 6.62878 5.08595C6.73651 5.09533 6.85751 5.1272 7.01867 5.18188C7.06575 5.19803 7.06575 5.19803 7.11151 5.21423C7.33306 5.29303 7.39322 5.31328 7.4057 5.31595C7.35661 5.30483 7.5012 5.04345 7.53436 4.99939C7.53829 5.02737 7.52164 5.02339 7.48168 5.01539L7.03066 4.92512L7.35171 4.59575C7.46394 4.48062 7.61338 4.42352 7.78392 4.42352C7.80161 4.42352 7.8181 4.4227 7.87228 4.41937C7.91235 4.41693 7.91235 4.41693 7.9574 4.41507C8.26938 4.40496 8.49311 4.49318 8.49311 4.81401C8.49311 4.92879 8.50761 5.11336 8.53154 5.25339C8.53959 5.30049 8.55514 5.34458 8.50928 5.36394C8.51117 5.34723 8.62045 5.30411 8.79037 5.23305L8.81077 5.22452C9.30448 5.01845 9.36217 4.99933 9.52132 5.09605C9.62738 5.16051 9.72836 5.27645 9.84151 5.4493L9.42317 5.72315C9.35019 5.61166 9.29207 5.54401 9.26439 5.52511C9.32729 5.56881 9.11544 5.63916 9.00336 5.68594L8.98328 5.69433C8.59889 5.85509 8.54822 5.87427 8.4383 5.87427C8.13921 5.87427 8.03181 5.56789 8.00241 5.12911C7.91013 5.4329 7.63479 5.81627 7.40791 5.81627C7.30858 5.81627 7.35634 5.83199 6.94396 5.68532C6.90075 5.67003 6.90075 5.67003 6.85803 5.65537C6.73309 5.61298 6.64297 5.58921 6.58611 5.58413C6.58846 5.58145 6.59683 5.57244 6.60622 5.5644L6.14117 5.61133Z" fill="#C09302"/>
</g>
</g>
</svg>
