<svg width="16" height="13" viewBox="0 0 16 13" fill="none" xmlns="http://www.w3.org/2000/svg">
<mask id="mask0_356_361" style="mask-type:luminance" maskUnits="userSpaceOnUse" x="0" y="0" width="16" height="13">
<rect y="0.5" width="16" height="12" fill="white"/>
</mask>
<g mask="url(#mask0_356_361)">
<path fill-rule="evenodd" clip-rule="evenodd" d="M0 0.5V12.5H16V0.5H0Z" fill="#2E42A5"/>
<mask id="mask1_356_361" style="mask-type:luminance" maskUnits="userSpaceOnUse" x="0" y="0" width="16" height="13">
<path fill-rule="evenodd" clip-rule="evenodd" d="M0 0.5V12.5H16V0.5H0Z" fill="white"/>
</mask>
<g mask="url(#mask1_356_361)">
<mask id="mask2_356_361" style="mask-type:luminance" maskUnits="userSpaceOnUse" x="0" y="0" width="16" height="13">
<rect y="0.5" width="16" height="12" fill="white"/>
</mask>
<g mask="url(#mask2_356_361)">
<path d="M-1.78162 11.6426L1.73923 13.1316L16.0798 2.11878L17.937 -0.0939589L14.172 -0.591637L8.32278 4.1541L3.61478 7.35161L-1.78162 11.6426Z" fill="white"/>
<path d="M-1.29962 12.6859L0.494086 13.55L17.2701 -0.299421H14.7515L-1.29962 12.6859Z" fill="#F50100"/>
<path d="M17.7816 11.6426L14.2607 13.1316L-0.0799084 2.11878L-1.93707 -0.0939589L1.82796 -0.591637L7.67716 4.1541L12.3852 7.35161L17.7816 11.6426Z" fill="white"/>
<path d="M17.6614 12.3913L15.8677 13.2554L8.72433 7.32569L6.60646 6.66318L-2.11576 -0.0864143H0.402819L9.12014 6.50298L11.4356 7.2974L17.6614 12.3913Z" fill="#F50100"/>
<mask id="path-9-inside-1_356_361" fill="white">
<path fill-rule="evenodd" clip-rule="evenodd" d="M9.88885 -0.5H6.11108V4.5H-0.986267V8.5H6.11108V13.5H9.88885V8.5H17.0137V4.5H9.88885V-0.5Z"/>
</mask>
<path fill-rule="evenodd" clip-rule="evenodd" d="M9.88885 -0.5H6.11108V4.5H-0.986267V8.5H6.11108V13.5H9.88885V8.5H17.0137V4.5H9.88885V-0.5Z" fill="#F50100"/>
<path d="M6.11108 -0.5V-1.5H5.11108V-0.5H6.11108ZM9.88885 -0.5H10.8889V-1.5H9.88885V-0.5ZM6.11108 4.5V5.5H7.11108V4.5H6.11108ZM-0.986267 4.5V3.5H-1.98627V4.5H-0.986267ZM-0.986267 8.5H-1.98627V9.5H-0.986267V8.5ZM6.11108 8.5H7.11108V7.5H6.11108V8.5ZM6.11108 13.5H5.11108V14.5H6.11108V13.5ZM9.88885 13.5V14.5H10.8889V13.5H9.88885ZM9.88885 8.5V7.5H8.88885V8.5H9.88885ZM17.0137 8.5V9.5H18.0137V8.5H17.0137ZM17.0137 4.5H18.0137V3.5H17.0137V4.5ZM9.88885 4.5H8.88885V5.5H9.88885V4.5ZM6.11108 0.5H9.88885V-1.5H6.11108V0.5ZM7.11108 4.5V-0.5H5.11108V4.5H7.11108ZM-0.986267 5.5H6.11108V3.5H-0.986267V5.5ZM0.0137329 8.5V4.5H-1.98627V8.5H0.0137329ZM6.11108 7.5H-0.986267V9.5H6.11108V7.5ZM7.11108 13.5V8.5H5.11108V13.5H7.11108ZM9.88885 12.5H6.11108V14.5H9.88885V12.5ZM8.88885 8.5V13.5H10.8889V8.5H8.88885ZM17.0137 7.5H9.88885V9.5H17.0137V7.5ZM16.0137 4.5V8.5H18.0137V4.5H16.0137ZM9.88885 5.5H17.0137V3.5H9.88885V5.5ZM8.88885 -0.5V4.5H10.8889V-0.5H8.88885Z" fill="white" mask="url(#path-9-inside-1_356_361)"/>
</g>
</g>
</g>
</svg>
