<svg width="16" height="13" viewBox="0 0 16 13" fill="none" xmlns="http://www.w3.org/2000/svg">
<mask id="mask0_356_66" style="mask-type:luminance" maskUnits="userSpaceOnUse" x="0" y="0" width="16" height="13">
<rect y="0.5" width="16" height="12" fill="white"/>
</mask>
<g mask="url(#mask0_356_66)">
<path fill-rule="evenodd" clip-rule="evenodd" d="M0 0.5V12.5H16V0.5H0Z" fill="#F50101"/>
<mask id="mask1_356_66" style="mask-type:luminance" maskUnits="userSpaceOnUse" x="0" y="0" width="16" height="13">
<path fill-rule="evenodd" clip-rule="evenodd" d="M0 0.5V12.5H16V0.5H0Z" fill="white"/>
</mask>
<g mask="url(#mask1_356_66)">
<path fill-rule="evenodd" clip-rule="evenodd" d="M0 0.5V4.5H16V0.5H0Z" fill="#F7FCFF"/>
<path fill-rule="evenodd" clip-rule="evenodd" d="M0 8.5V12.5H16V8.5H0Z" fill="#5EAA22"/>
<rect y="0.5" width="6" height="12" fill="#F50101"/>
<path fill-rule="evenodd" clip-rule="evenodd" d="M5.38519 1.51651C5.38992 1.4709 5.33158 1.45335 5.30832 1.49287C5.12688 1.80109 4.67209 2.53431 3.92346 3.49315V3.03431C3.85205 2.9567 3.6244 2.74791 3.6244 2.74791V2.28975L4.03624 1.91706L3.4706 1.50008L2.87443 1.91706L3.32506 2.28975V2.74791C3.32506 2.96761 3.05186 3.03431 3.05186 3.03431L3.00184 3.43846C2.30537 2.53406 1.87114 1.82889 1.68726 1.51371C1.66353 1.47303 1.60384 1.49219 1.61085 1.53876C1.66635 1.90734 1.83235 2.72514 2.29089 3.59831H2.16791V3.58205C2.16791 3.55804 2.14845 3.53857 2.12443 3.53857H1.07008C1.04607 3.53857 1.02661 3.55804 1.02661 3.58205V4.24509C1.02661 4.2691 1.04607 4.28857 1.07008 4.28857H2.12443C2.14845 4.28857 2.16791 4.2691 2.16791 4.24509V3.89699H2.30069C2.34573 4.00084 2.44916 4.07403 2.57011 4.07616C2.65461 4.20652 2.74624 4.33653 2.8456 4.46491C2.61703 4.4423 1.10635 4.31369 1.10635 4.86328C1.10635 5.19133 1.47379 5.36498 1.93461 5.45473C1.47062 5.87491 1.03266 6.27024 0.831155 6.45204C0.79846 6.48154 0.824017 6.53263 0.866758 6.52204C1.2266 6.43286 2.16983 6.15773 3.06774 5.54517L3.09571 5.5452C3.34859 5.5452 3.52447 5.4355 3.64672 5.28702C4.55998 6.03247 5.59318 6.37676 6.04168 6.50012C6.08821 6.51292 6.11337 6.45269 6.07372 6.42517C5.70943 6.17231 4.88799 5.56377 4.04805 4.67986L4.07008 4.65406C4.24145 4.45183 4.39077 4.24382 4.52088 4.03524C4.57532 4.00341 4.61867 3.95498 4.64382 3.89699H4.77661L4.77661 4.24509C4.77661 4.2691 4.79607 4.28857 4.82008 4.28857H5.87443C5.89844 4.28857 5.91791 4.2691 5.91791 4.24509V3.58205C5.91791 3.55804 5.89844 3.53857 5.87443 3.53857H4.82008C4.80895 3.53857 4.79879 3.54275 4.7911 3.54964C5.22227 2.67689 5.34884 1.86708 5.38519 1.51651ZM4.77661 3.59831L4.77661 3.58205L4.77675 3.57849L4.76677 3.59831H4.77661ZM2.82008 3.78051C2.82008 3.91412 2.71059 4.02244 2.57552 4.02244C2.44045 4.02244 2.33095 3.91412 2.33095 3.78051C2.33095 3.64689 2.44045 3.53857 2.57552 3.53857C2.71059 3.53857 2.82008 3.64689 2.82008 3.78051ZM4.12443 3.78051C4.12443 3.91412 4.23393 4.02244 4.369 4.02244C4.50407 4.02244 4.61356 3.91412 4.61356 3.78051C4.61356 3.64689 4.50407 3.53857 4.369 3.53857C4.23393 3.53857 4.12443 3.64689 4.12443 3.78051Z" fill="#F7FCFF"/>
</g>
</g>
</svg>
