<svg width="16" height="13" viewBox="0 0 16 13" fill="none" xmlns="http://www.w3.org/2000/svg">
<mask id="mask0_356_226" style="mask-type:luminance" maskUnits="userSpaceOnUse" x="0" y="0" width="16" height="13">
<rect y="0.5" width="16" height="12" fill="white"/>
</mask>
<g mask="url(#mask0_356_226)">
<path fill-rule="evenodd" clip-rule="evenodd" d="M0 0.5V12.5H16V0.5H0Z" fill="#BF2714"/>
<mask id="mask1_356_226" style="mask-type:luminance" maskUnits="userSpaceOnUse" x="0" y="0" width="16" height="13">
<path fill-rule="evenodd" clip-rule="evenodd" d="M0 0.5V12.5H16V0.5H0Z" fill="white"/>
</mask>
<g mask="url(#mask1_356_226)">
<path fill-rule="evenodd" clip-rule="evenodd" d="M0 -0.5V6.5H16V-0.5H0Z" fill="#3D58DB"/>
</g>
<path fill-rule="evenodd" clip-rule="evenodd" d="M0 0.5V12.5L9 6.5L0 0.5Z" fill="#F7FCFF"/>
<mask id="mask2_356_226" style="mask-type:luminance" maskUnits="userSpaceOnUse" x="0" y="0" width="9" height="13">
<path fill-rule="evenodd" clip-rule="evenodd" d="M0 0.5V12.5L9 6.5L0 0.5Z" fill="white"/>
</mask>
<g mask="url(#mask2_356_226)">
<path fill-rule="evenodd" clip-rule="evenodd" d="M6.80253 5.96001L7.44047 6.20602L7.82002 5.75936L7.83009 6.35674L8.41722 6.54771L7.79922 6.75748L7.83995 7.30643L7.43291 6.88592L6.7931 7.00762L7.17084 6.52329L6.80253 5.96001Z" fill="#FECA00"/>
<path fill-rule="evenodd" clip-rule="evenodd" d="M0.802526 8.96001L1.38891 9.21926L1.82002 8.75936L1.77853 9.36998L2.41722 9.54771L1.74766 9.77072L1.83995 10.3064L1.37377 9.92364L0.793095 10.0076L1.11928 9.53653L0.802526 8.96001Z" fill="#FECA00"/>
<path fill-rule="evenodd" clip-rule="evenodd" d="M0.802526 2.96001L1.4514 3.19912L1.82002 2.75936L1.84103 3.34983L2.41722 3.54771L1.81016 3.75058L1.83995 4.30643L1.43626 3.90349L0.793095 4.00762L1.18178 3.51639L0.802526 2.96001Z" fill="#FECA00"/>
<path fill-rule="evenodd" clip-rule="evenodd" d="M4.06075 7.76636C4.7511 7.76636 5.31075 7.20671 5.31075 6.51636C5.31075 5.826 4.7511 5.26636 4.06075 5.26636C3.37039 5.26636 2.81075 5.826 2.81075 6.51636C2.81075 7.20671 3.37039 7.76636 4.06075 7.76636Z" fill="#FECA00"/>
<path fill-rule="evenodd" clip-rule="evenodd" d="M3.91298 4.61995L3.98015 5.42295C3.98657 5.47171 4.02409 5.51056 4.0726 5.51868C4.13353 5.52888 4.1912 5.48775 4.2014 5.42681L4.29006 4.62653C4.29161 4.61722 4.29248 4.60781 4.29264 4.59838C4.29448 4.4931 4.21062 4.40626 4.10534 4.40442C4.0959 4.40426 4.08647 4.40479 4.07711 4.40602C3.97272 4.41977 3.89923 4.51555 3.91298 4.61995ZM3.70393 5.00803L3.80773 5.35735C3.81737 5.38977 3.84975 5.40985 3.88638 5.40339C3.9164 5.3963 3.93498 5.36621 3.92789 5.33619L3.84505 4.98561C3.83552 4.94529 3.79646 4.91919 3.75556 4.92581C3.75283 4.92625 3.75013 4.92687 3.74747 4.92766C3.71325 4.93783 3.69376 4.97381 3.70393 5.00803ZM4.26534 5.3719C4.2572 5.40166 4.27472 5.43238 4.30775 5.4413C4.34086 5.44825 4.37392 5.42931 4.38468 5.39724L4.50062 5.05176C4.51197 5.01792 4.49375 4.98127 4.4599 4.96992C4.45728 4.96903 4.4546 4.96832 4.45188 4.96779C4.41124 4.95974 4.3713 4.98447 4.36037 5.02443L4.26534 5.3719ZM5.3039 5.02082L4.74504 5.63792C4.7151 5.67694 4.71416 5.73094 4.74272 5.77098C4.77859 5.82128 4.84846 5.83298 4.89876 5.7971L5.56587 5.29211C5.57356 5.28663 5.58082 5.28059 5.58761 5.27403C5.66335 5.20088 5.66546 5.08018 5.59231 5.00444C5.58576 4.99765 5.57871 4.99136 5.57122 4.98561C5.48768 4.92151 5.36799 4.93728 5.3039 5.02082ZM5.13389 6.33079L5.96837 6.26621C6.07276 6.25246 6.16854 6.32595 6.18229 6.43034C6.18352 6.4397 6.18406 6.44913 6.18389 6.45857C6.18206 6.56385 6.09522 6.64771 5.98993 6.64587C5.9805 6.64571 5.97109 6.64484 5.96178 6.64328L5.13003 6.55204C5.06909 6.54184 5.02796 6.48418 5.03816 6.42324C5.04628 6.37473 5.08513 6.33722 5.13389 6.33079ZM5.56697 7.65989L4.91891 7.09568C4.87989 7.06574 4.82589 7.0648 4.78585 7.09336C4.73555 7.12924 4.72386 7.1991 4.75973 7.2494L5.29569 7.92186C5.30117 7.92955 5.30721 7.93681 5.31376 7.9436C5.38691 8.01935 5.50761 8.02145 5.58336 7.94831C5.59015 7.94175 5.59644 7.9347 5.60218 7.92721C5.66628 7.84367 5.65052 7.72398 5.56697 7.65989ZM4.22604 7.48453L4.27552 8.32704C4.28927 8.43144 4.21579 8.52722 4.11139 8.54097C4.10203 8.5422 4.0926 8.54274 4.08316 8.54257C3.97788 8.54073 3.89402 8.45389 3.89586 8.34861C3.89602 8.33918 3.89689 8.32977 3.89845 8.32046L4.00479 7.48067C4.01499 7.41973 4.07266 7.3786 4.1336 7.3888C4.18211 7.39692 4.21962 7.43577 4.22604 7.48453ZM2.91051 7.93969L3.46115 7.26955C3.49109 7.23053 3.49203 7.17654 3.46348 7.13649C3.4276 7.08619 3.35774 7.0745 3.30744 7.11037L2.64853 7.6684C2.64085 7.67388 2.63358 7.67993 2.62679 7.68648C2.55105 7.75963 2.54894 7.88033 2.62209 7.95608C2.62864 7.96286 2.63569 7.96916 2.64318 7.9749C2.72672 8.039 2.84641 8.02323 2.91051 7.93969ZM3.07231 6.57668L2.2327 6.64587C2.1283 6.65962 2.03253 6.58614 2.01878 6.48174C2.01755 6.47238 2.01701 6.46295 2.01717 6.45351C2.01901 6.34823 2.10585 6.26437 2.21113 6.26621C2.22057 6.26637 2.22998 6.26724 2.23928 6.2688L3.07617 6.35543C3.13711 6.36563 3.17824 6.4233 3.16804 6.48424C3.15992 6.53275 3.12107 6.57026 3.07231 6.57668ZM2.57517 5.26115L3.28728 5.8118C3.3263 5.84173 3.3803 5.84268 3.42034 5.81412C3.47064 5.77824 3.48234 5.70838 3.44646 5.65808L2.84645 4.99917C2.84097 4.99149 2.83493 4.98422 2.82838 4.97744C2.75523 4.90169 2.63453 4.89958 2.55878 4.97273C2.55199 4.97928 2.5457 4.98633 2.53996 4.99382C2.47586 5.07736 2.49162 5.19705 2.57517 5.26115ZM4.66951 5.46962L4.84311 5.14921C4.86012 5.11782 4.89935 5.10617 4.93074 5.12317C4.93317 5.12449 4.93552 5.12596 4.93776 5.12758C4.97136 5.15182 4.98052 5.1979 4.95875 5.23315L4.76943 5.53962C4.75322 5.56587 4.7188 5.574 4.69256 5.55779C4.6621 5.53646 4.6534 5.49936 4.66951 5.46962ZM5.54881 6.05457L5.19949 6.15838C5.16706 6.16801 5.14698 6.2004 5.15344 6.23702C5.16054 6.26704 5.19063 6.28563 5.22065 6.27853L5.57122 6.19569C5.61154 6.18616 5.63765 6.1471 5.63103 6.1062C5.63058 6.10347 5.62997 6.10077 5.62918 6.09812C5.61901 6.0639 5.58303 6.0444 5.54881 6.05457ZM5.08722 7.02015L5.40762 7.19375C5.43901 7.21076 5.45067 7.24999 5.43366 7.28138C5.43234 7.28381 5.43087 7.28616 5.42925 7.2884C5.40501 7.322 5.35894 7.33116 5.32369 7.30939L5.01721 7.12008C4.99097 7.10386 4.98284 7.06945 4.99905 7.0432C5.02038 7.01274 5.05747 7.00404 5.08722 7.02015ZM4.50227 7.89945L4.39846 7.55013C4.38882 7.5177 4.35644 7.49762 4.31982 7.50408C4.2898 7.51118 4.27121 7.54127 4.2783 7.57129L4.36115 7.92186C4.37068 7.96218 4.40974 7.98829 4.45063 7.98167C4.45337 7.98123 4.45607 7.98061 4.45872 7.97982C4.49294 7.96965 4.51244 7.93367 4.50227 7.89945ZM3.53668 7.43786L3.36308 7.75826C3.34608 7.78965 3.30685 7.80131 3.27546 7.7843C3.27302 7.78299 3.27068 7.78151 3.26843 7.77989C3.23483 7.75566 3.22567 7.70958 3.24745 7.67433L3.43676 7.36786C3.45297 7.34161 3.48739 7.33348 3.51363 7.34969C3.5441 7.37102 3.5528 7.40811 3.53668 7.43786ZM2.65739 6.85291L3.00671 6.7491C3.03913 6.73946 3.05921 6.70708 3.05275 6.67046C3.04566 6.64044 3.01557 6.62185 2.98555 6.62895L2.63497 6.71179C2.59465 6.72132 2.56855 6.76038 2.57517 6.80128C2.57561 6.80401 2.57623 6.80671 2.57701 6.80936C2.58718 6.84358 2.62317 6.86308 2.65739 6.85291ZM3.11898 5.88733L2.79857 5.71372C2.76718 5.69672 2.75552 5.65749 2.77253 5.6261C2.77385 5.62367 2.77532 5.62132 2.77694 5.61907C2.80118 5.58548 2.84726 5.57632 2.8825 5.59809L3.18898 5.7874C3.21523 5.80361 3.22336 5.83803 3.20715 5.86428C3.18582 5.89474 3.14872 5.90344 3.11898 5.88733ZM4.98279 5.80349C4.956 5.81877 4.94667 5.85289 4.96371 5.88255C4.98221 5.91087 5.01898 5.92086 5.04926 5.90579L5.37553 5.74348C5.4075 5.72758 5.42052 5.68878 5.40462 5.65682C5.40338 5.65434 5.40199 5.65194 5.40045 5.64964C5.3774 5.61522 5.33167 5.60445 5.29569 5.62498L4.98279 5.80349ZM5.11553 6.65839C5.12446 6.62537 5.15518 6.60784 5.18493 6.61598L5.5324 6.71101C5.57237 6.72194 5.59709 6.76189 5.58905 6.80253C5.58851 6.80524 5.5878 6.80792 5.58692 6.81054C5.57556 6.84439 5.53892 6.86262 5.50508 6.85126L5.1596 6.73532C5.12752 6.72456 5.10859 6.6915 5.11553 6.65839ZM4.75335 7.33343C4.73806 7.30664 4.70395 7.29731 4.67429 7.31435C4.64597 7.33285 4.63598 7.36962 4.65104 7.39991L4.81336 7.72618C4.82926 7.75814 4.86806 7.77116 4.90002 7.75526C4.9025 7.75403 4.90489 7.75264 4.90719 7.7511C4.94162 7.72805 4.95238 7.68231 4.93185 7.64633L4.75335 7.33343ZM3.89845 7.46617C3.93147 7.4751 3.94899 7.50582 3.94086 7.53557L3.84583 7.88305C3.8349 7.92301 3.79495 7.94773 3.75431 7.93969C3.75159 7.93915 3.74892 7.93844 3.74629 7.93756C3.71245 7.92621 3.69422 7.88956 3.70558 7.85572L3.82151 7.51024C3.83227 7.47817 3.86534 7.45923 3.89845 7.46617ZM3.2234 7.10399C3.2502 7.0887 3.25953 7.05459 3.24249 7.02493C3.22399 6.99661 3.18722 6.98662 3.15693 7.00169L2.83066 7.164C2.7987 7.1799 2.78568 7.2187 2.80158 7.25066C2.80281 7.25314 2.8042 7.25554 2.80574 7.25784C2.82879 7.29226 2.87452 7.30302 2.91051 7.28249L3.2234 7.10399ZM3.09066 6.24909C3.08174 6.28211 3.05102 6.29964 3.02126 6.2915L2.67379 6.19647C2.63383 6.18554 2.6091 6.14559 2.61714 6.10495C2.61768 6.10224 2.61839 6.09956 2.61927 6.09693C2.63063 6.06309 2.66727 6.04486 2.70112 6.05622L3.0466 6.17215C3.07867 6.18292 3.09761 6.21598 3.09066 6.24909ZM3.45284 5.57404C3.46813 5.60084 3.50224 5.61017 3.53191 5.59313C3.56023 5.57463 3.57022 5.53786 3.55515 5.50757L3.39284 5.1813C3.37694 5.14934 3.33814 5.13632 3.30617 5.15222C3.3037 5.15345 3.3013 5.15484 3.299 5.15638C3.26458 5.17943 3.25381 5.22516 3.27434 5.26115L3.45284 5.57404Z" fill="#FECA00"/>
</g>
</g>
</svg>
