<svg width="16" height="13" viewBox="0 0 16 13" fill="none" xmlns="http://www.w3.org/2000/svg">
<mask id="mask0_356_186" style="mask-type:luminance" maskUnits="userSpaceOnUse" x="0" y="0" width="16" height="13">
<rect y="0.5" width="16" height="12" fill="white"/>
</mask>
<g mask="url(#mask0_356_186)">
<path fill-rule="evenodd" clip-rule="evenodd" d="M4 0.5H16V12.5H4V0.5Z" fill="#EF0000"/>
<path fill-rule="evenodd" clip-rule="evenodd" d="M0 0.5H6V12.5H0V0.5Z" fill="#2F8D00"/>
<mask id="mask1_356_186" style="mask-type:luminance" maskUnits="userSpaceOnUse" x="2" y="2" width="8" height="9">
<path fill-rule="evenodd" clip-rule="evenodd" d="M5.95236 10.4037C3.82212 10.4037 2.09521 8.65596 2.09521 6.50005C2.09521 4.34414 3.82212 2.59644 5.95236 2.59644C8.0826 2.59644 9.8095 4.34414 9.8095 6.50005C9.8095 8.65596 8.0826 10.4037 5.95236 10.4037Z" fill="white"/>
</mask>
<g mask="url(#mask1_356_186)">
<path fill-rule="evenodd" clip-rule="evenodd" d="M5.71423 2.5H6.21423V3.8494H5.71423V2.5Z" fill="#FFE017"/>
<path fill-rule="evenodd" clip-rule="evenodd" d="M5.71423 9.24707H6.21423V10.5001H5.71423V9.24707Z" fill="#FFE017"/>
<path d="M2.15719 6.70201L2.0174 6.34337C3.55999 5.72753 4.72427 5.33037 5.51426 5.15138C6.67332 4.88878 7.94686 4.69449 9.33496 4.56836L9.36902 4.95236C7.99685 5.07704 6.73964 5.26884 5.59749 5.52761C4.83101 5.70127 3.6829 6.09291 2.15719 6.70201Z" fill="#FFE017"/>
<path d="M9.57042 4.33204L9.45698 4.70009C8.29112 4.33204 7.34141 4.17383 6.61139 4.22283L6.58618 3.83814C7.36998 3.78552 8.36354 3.95104 9.57042 4.33204Z" fill="#FFE017"/>
<path d="M9.9738 6.38991L9.7583 6.70784C9.16396 6.2952 8.43174 6.08793 7.55664 6.08793V5.70239C8.50533 5.70239 9.31271 5.93093 9.9738 6.38991Z" fill="#FFE017"/>
<path d="M9.65101 6.50537L9.7495 6.8778C8.46818 7.22487 7.26521 7.42178 6.14049 7.46815C5.00801 7.51484 3.68808 7.31723 2.17957 6.87681L2.28516 6.50637C3.75701 6.93609 5.03733 7.12777 6.12498 7.08293C7.22039 7.03777 8.39577 6.84538 9.65101 6.50537Z" fill="#FFE017"/>
<path d="M9.50584 8.31811L8.90367 8.93545C7.75932 7.79217 6.75186 6.97468 5.88748 6.4835C5.00832 5.98392 3.86183 5.47663 2.44977 4.96368L2.73934 4.14722C4.19304 4.67529 5.38171 5.20124 6.30712 5.72711C7.2473 6.26136 8.31148 7.12486 9.50584 8.31811Z" fill="#FFE017"/>
<path d="M2.72915 8.6676L2.50122 8.35868C2.53305 8.33463 2.58984 8.29451 2.66809 8.24368C2.79729 8.15974 2.94076 8.07594 3.09512 7.99764C3.52028 7.78197 3.94675 7.64731 4.3535 7.63494C4.3734 7.63434 4.39321 7.63403 4.41293 7.63403V8.01958C4.39704 8.01958 4.38105 8.01982 4.36495 8.02031C4.02216 8.03073 3.64573 8.14959 3.26583 8.34231C3.12423 8.41414 2.99229 8.4912 2.87389 8.56812C2.83267 8.5949 2.7962 8.61966 2.76496 8.64173C2.74674 8.6546 2.73465 8.66345 2.72915 8.6676Z" fill="#FFE017"/>
<path d="M2.90607 8.80127L3.002 8.42816C4.27206 8.76263 5.2512 8.9293 5.93455 8.9293C6.61534 8.9293 7.62864 8.7327 8.96785 8.33813L9.07434 8.70831C7.70344 9.11221 6.65904 9.31485 5.93455 9.31485C5.21261 9.31485 4.20474 9.14328 2.90607 8.80127Z" fill="#FFE017"/>
<path d="M2.41119 5.34717L3.01473 4.7312L3.89839 5.61802L3.29485 6.23399L2.41119 5.34717Z" fill="#FFE017"/>
<path d="M7.41797 8.42404L7.86689 7.68506L9.2687 8.55728L8.81978 9.29626L7.41797 8.42404Z" fill="#FFE017"/>
</g>
<path fill-rule="evenodd" clip-rule="evenodd" d="M2.09521 6.50005C2.09521 8.65596 3.82212 10.4037 5.95236 10.4037C8.0826 10.4037 9.8095 8.65596 9.8095 6.50005C9.8095 4.34414 8.0826 2.59644 5.95236 2.59644C3.82212 2.59644 2.09521 4.34414 2.09521 6.50005ZM9.33331 6.54824C9.33331 8.41137 7.84093 9.92174 5.99998 9.92174C4.15903 9.92174 2.66664 8.41137 2.66664 6.54824C2.66664 4.68511 4.15903 3.17475 5.99998 3.17475C7.84093 3.17475 9.33331 4.68511 9.33331 6.54824Z" fill="#F9E813"/>
<path d="M3.82831 4.09253V7.22288C4.03438 8.46192 4.72861 9.08144 5.911 9.08144C7.0934 9.08144 7.78763 8.46192 7.9937 7.22288V4.09253H3.82831Z" fill="white"/>
<path d="M3.0426 3.5H8.57942V7.21137L8.57479 7.23706C8.30732 8.71984 7.35914 9.5 5.81101 9.5C4.26288 9.5 3.3147 8.71984 3.04724 7.23706L3.0426 7.21137V3.5Z" fill="#C51918"/>
<path fill-rule="evenodd" clip-rule="evenodd" d="M4.52378 4.45312H3.62378V5.35312H4.52378V4.45312ZM8.02378 4.45312H7.12378V5.35312H8.02378V4.45312Z" fill="#F9E813"/>
<path fill-rule="evenodd" clip-rule="evenodd" d="M3.62378 6.45312H4.52378V7.35312H3.62378V6.45312ZM7.17357 6.46729H8.07357V7.36729H7.17357V6.46729ZM7.18719 7.92475H6.28719V8.82475H7.18719V7.92475Z" fill="#F9E813"/>
<path fill-rule="evenodd" clip-rule="evenodd" d="M4.32422 7.92065H5.22422V8.82065H4.32422V7.92065Z" fill="#F9E813"/>
<path d="M4.42609 4.85522H7.39595V7.07567C7.39595 7.07567 7.17556 8.22232 5.91102 8.22232C4.64647 8.22232 4.42609 7.07567 4.42609 7.07567V4.85522Z" fill="#F7FCFF"/>
<path d="M5.61902 5.10229H6.27918V5.58303C6.27918 5.58303 6.2302 5.83129 5.9491 5.83129C5.66801 5.83129 5.61902 5.58303 5.61902 5.58303V5.10229Z" fill="#013399"/>
<path d="M5.61902 6.1626H6.27918V6.64333C6.27918 6.64333 6.2302 6.89159 5.9491 6.89159C5.66801 6.89159 5.61902 6.64333 5.61902 6.64333V6.1626Z" fill="#013399"/>
<path d="M6.47614 6.1626H7.1363V6.64333C7.1363 6.64333 7.08731 6.89159 6.80622 6.89159C6.52512 6.89159 6.47614 6.64333 6.47614 6.64333V6.1626Z" fill="#013399"/>
<path d="M4.7619 6.1626H5.42207V6.64333C5.42207 6.64333 5.37308 6.89159 5.09198 6.89159C4.81089 6.89159 4.7619 6.64333 4.7619 6.64333V6.1626Z" fill="#013399"/>
<path d="M5.61902 7.2229H6.27918V7.70364C6.27918 7.70364 6.2302 7.95189 5.9491 7.95189C5.66801 7.95189 5.61902 7.70364 5.61902 7.70364V7.2229Z" fill="#013399"/>
</g>
</svg>
