<svg width="16" height="13" viewBox="0 0 16 13" fill="none" xmlns="http://www.w3.org/2000/svg">
<path fill-rule="evenodd" clip-rule="evenodd" d="M0 0.5V12.5H16V0.5H0Z" fill="#F7FCFF"/>
<mask id="mask0_356_286" style="mask-type:luminance" maskUnits="userSpaceOnUse" x="0" y="0" width="16" height="13">
<path fill-rule="evenodd" clip-rule="evenodd" d="M0 0.5V12.5H16V0.5H0Z" fill="white"/>
</mask>
<g mask="url(#mask0_356_286)">
<path fill-rule="evenodd" clip-rule="evenodd" d="M0 0.5V6.5H16V0.5H0Z" fill="#E31D1C"/>
<path fill-rule="evenodd" clip-rule="evenodd" d="M4.4342 5.79478C4.4342 5.79478 3.02136 5.22653 3.02136 3.687C3.02136 2.14746 4.4342 1.59757 4.4342 1.59757C3.74753 1.42374 1.92548 1.57922 1.92548 3.687C1.92548 5.79478 3.72 6.19228 4.4342 5.79478ZM4.79619 5.5403L5.2015 5.29562L5.61574 5.5403L5.51436 5.06282L5.85111 4.68615H5.39486L5.2015 4.2403L5.00814 4.68615L4.55111 4.70548L4.88864 5.06282L4.79619 5.5403ZM6.67465 5.26829L6.26934 5.51298L6.36179 5.0355L6.02426 4.67815L6.48129 4.65883L6.67465 4.21298L6.86801 4.65883H7.32426L6.98751 5.0355L7.08889 5.51298L6.67465 5.26829ZM5.64358 3.38493L6.04889 3.14024L6.46313 3.38493L6.36175 2.90744L6.6985 2.53077H6.24225L6.04889 2.08493L5.85553 2.53077L5.3985 2.5501L5.73602 2.90744L5.64358 3.38493ZM4.68489 4.11132L4.27958 4.35601L4.37203 3.87853L4.0345 3.52118L4.49153 3.50186L4.68489 3.05601L4.87825 3.50186H5.3345L4.99776 3.87853L5.09914 4.35601L4.68489 4.11132ZM6.95879 4.33408L7.3641 4.08939L7.77834 4.33408L7.67696 3.8566L8.01371 3.47993H7.55746L7.3641 3.03408L7.17074 3.47993L6.71371 3.49925L7.05124 3.8566L6.95879 4.33408Z" fill="#F1F9FF"/>
</g>
</svg>
