<svg width="16" height="13" viewBox="0 0 16 13" fill="none" xmlns="http://www.w3.org/2000/svg">
<mask id="mask0_356_16" style="mask-type:luminance" maskUnits="userSpaceOnUse" x="0" y="0" width="16" height="13">
<rect y="0.5" width="16" height="12" fill="white"/>
</mask>
<g mask="url(#mask0_356_16)">
<path fill-rule="evenodd" clip-rule="evenodd" d="M0 0.5V12.5H16V0.5H0Z" fill="#F7FCFF"/>
<mask id="mask1_356_16" style="mask-type:luminance" maskUnits="userSpaceOnUse" x="0" y="0" width="16" height="13">
<path fill-rule="evenodd" clip-rule="evenodd" d="M0 0.5V12.5H16V0.5H0Z" fill="white"/>
</mask>
<g mask="url(#mask1_356_16)">
<path fill-rule="evenodd" clip-rule="evenodd" d="M7.8933 9.78567C9.60142 9.78567 10.9861 8.36764 10.9861 6.61842C10.9861 4.8692 9.60142 3.45117 7.8933 3.45117C6.18518 3.45117 4.80048 4.8692 4.80048 6.61842C4.80048 8.36764 6.18518 9.78567 7.8933 9.78567Z" fill="#3D58DB"/>
<mask id="mask2_356_16" style="mask-type:luminance" maskUnits="userSpaceOnUse" x="4" y="3" width="7" height="7">
<path fill-rule="evenodd" clip-rule="evenodd" d="M7.8933 9.78567C9.60142 9.78567 10.9861 8.36764 10.9861 6.61842C10.9861 4.8692 9.60142 3.45117 7.8933 3.45117C6.18518 3.45117 4.80048 4.8692 4.80048 6.61842C4.80048 8.36764 6.18518 9.78567 7.8933 9.78567Z" fill="white"/>
</mask>
<g mask="url(#mask2_356_16)">
<path fill-rule="evenodd" clip-rule="evenodd" d="M11.0943 6.86102C11.0943 6.86102 10.9207 5.36756 9.63502 5.28649C8.34933 5.20541 8.00266 6.3817 7.92847 6.69334C7.85428 7.00498 7.6665 7.83633 6.31282 7.83633C4.95914 7.83633 4.83704 5.72239 4.83704 5.72239V3.22974H11.0943V6.86102Z" fill="#E31D1C"/>
</g>
<path fill-rule="evenodd" clip-rule="evenodd" d="M3.64967 1.52612L4.10715 1.93989L1.98702 4.41584L1.52954 4.00208L3.64967 1.52612ZM4.40416 2.1957L4.86165 2.60947L2.81751 5.04955L2.36003 4.63579L4.40416 2.1957ZM5.61268 3.28729L5.1552 2.87353L3.10539 5.33213L3.56287 5.74589L5.61268 3.28729Z" fill="#272727"/>
<path d="M4.10715 1.93989L4.16412 1.98867L4.21159 1.93322L4.15746 1.88426L4.10715 1.93989ZM3.64967 1.52612L3.69998 1.4705L3.64282 1.41881L3.5927 1.47734L3.64967 1.52612ZM1.98702 4.41584L1.93671 4.47146L1.99387 4.52315L2.04399 4.46462L1.98702 4.41584ZM1.52954 4.00208L1.47257 3.95329L1.4251 4.00874L1.47923 4.0577L1.52954 4.00208ZM4.86165 2.60947L4.91914 2.65763L4.96551 2.60228L4.91195 2.55384L4.86165 2.60947ZM4.40416 2.1957L4.45447 2.14008L4.3967 2.08782L4.34667 2.14754L4.40416 2.1957ZM2.81751 5.04955L2.76721 5.10517L2.82498 5.15743L2.87501 5.09771L2.81751 5.04955ZM2.36003 4.63579L2.30254 4.58762L2.25617 4.64297L2.30973 4.69141L2.36003 4.63579ZM5.1552 2.87353L5.20551 2.81791L5.1476 2.76553L5.0976 2.8255L5.1552 2.87353ZM5.61268 3.28729L5.67029 3.33532L5.71642 3.27999L5.66299 3.23167L5.61268 3.28729ZM3.10539 5.33213L3.04779 5.2841L3.00166 5.33943L3.05508 5.38776L3.10539 5.33213ZM3.56287 5.74589L3.51256 5.80152L3.57048 5.8539L3.62048 5.79392L3.56287 5.74589ZM4.15746 1.88426L3.69998 1.4705L3.59936 1.58175L4.05684 1.99551L4.15746 1.88426ZM2.04399 4.46462L4.16412 1.98867L4.05018 1.8911L1.93005 4.36706L2.04399 4.46462ZM1.47923 4.0577L1.93671 4.47146L2.03733 4.36021L1.57985 3.94645L1.47923 4.0577ZM3.5927 1.47734L1.47257 3.95329L1.58651 4.05086L3.70664 1.5749L3.5927 1.47734ZM4.91195 2.55384L4.45447 2.14008L4.35386 2.25133L4.81134 2.66509L4.91195 2.55384ZM2.87501 5.09771L4.91914 2.65763L4.80415 2.5613L2.76002 5.00139L2.87501 5.09771ZM2.30973 4.69141L2.76721 5.10517L2.86782 4.99392L2.41034 4.58016L2.30973 4.69141ZM4.34667 2.14754L2.30254 4.58762L2.41753 4.68395L4.46166 2.24386L4.34667 2.14754ZM5.1049 2.92915L5.56238 3.34292L5.66299 3.23167L5.20551 2.81791L5.1049 2.92915ZM3.163 5.38016L5.21281 2.92156L5.0976 2.8255L3.04779 5.2841L3.163 5.38016ZM3.61318 5.69027L3.1557 5.27651L3.05508 5.38776L3.51256 5.80152L3.61318 5.69027ZM5.55508 3.23927L3.50527 5.69787L3.62048 5.79392L5.67029 3.33532L5.55508 3.23927Z" fill="#272727"/>
<path fill-rule="evenodd" clip-rule="evenodd" d="M12.2926 1.52612L11.8351 1.93989L13.9552 4.41584L14.4127 4.00208L12.2926 1.52612ZM11.5381 2.1957L11.0806 2.60947L13.1247 5.04955L13.5822 4.63579L11.5381 2.1957ZM10.3295 3.28729L10.787 2.87353L12.8368 5.33213L12.3794 5.74589L10.3295 3.28729Z" fill="#272727"/>
<path d="M11.8351 1.93989L11.7781 1.98867L11.7306 1.93322L11.7848 1.88426L11.8351 1.93989ZM12.2926 1.52612L12.2423 1.4705L12.2994 1.41881L12.3495 1.47734L12.2926 1.52612ZM13.9552 4.41584L14.0055 4.47146L13.9484 4.52315L13.8982 4.46462L13.9552 4.41584ZM14.4127 4.00208L14.4697 3.95329L14.5171 4.00874L14.463 4.0577L14.4127 4.00208ZM11.0806 2.60947L11.0231 2.65763L10.9767 2.60228L11.0303 2.55384L11.0806 2.60947ZM11.5381 2.1957L11.4878 2.14008L11.5455 2.08782L11.5956 2.14754L11.5381 2.1957ZM13.1247 5.04955L13.175 5.10517L13.1172 5.15743L13.0672 5.09771L13.1247 5.04955ZM13.5822 4.63579L13.6397 4.58762L13.6861 4.64297L13.6325 4.69141L13.5822 4.63579ZM10.787 2.87353L10.7367 2.81791L10.7946 2.76553L10.8446 2.8255L10.787 2.87353ZM10.3295 3.28729L10.2719 3.33532L10.2258 3.27999L10.2792 3.23167L10.3295 3.28729ZM12.8368 5.33213L12.8944 5.2841L12.9406 5.33943L12.8871 5.38776L12.8368 5.33213ZM12.3794 5.74589L12.4297 5.80152L12.3718 5.8539L12.3218 5.79392L12.3794 5.74589ZM11.7848 1.88426L12.2423 1.4705L12.3429 1.58175L11.8854 1.99551L11.7848 1.88426ZM13.8982 4.46462L11.7781 1.98867L11.892 1.8911L14.0122 4.36706L13.8982 4.46462ZM14.463 4.0577L14.0055 4.47146L13.9049 4.36021L14.3624 3.94645L14.463 4.0577ZM12.3495 1.47734L14.4697 3.95329L14.3557 4.05086L12.2356 1.5749L12.3495 1.47734ZM11.0303 2.55384L11.4878 2.14008L11.5884 2.25133L11.1309 2.66509L11.0303 2.55384ZM13.0672 5.09771L11.0231 2.65763L11.1381 2.5613L13.1822 5.00139L13.0672 5.09771ZM13.6325 4.69141L13.175 5.10517L13.0744 4.99392L13.5319 4.58016L13.6325 4.69141ZM11.5956 2.14754L13.6397 4.58762L13.5247 4.68395L11.4806 2.24386L11.5956 2.14754ZM10.8373 2.92915L10.3799 3.34292L10.2792 3.23167L10.7367 2.81791L10.8373 2.92915ZM12.7792 5.38016L10.7294 2.92156L10.8446 2.8255L12.8944 5.2841L12.7792 5.38016ZM12.329 5.69027L12.7865 5.27651L12.8871 5.38776L12.4297 5.80152L12.329 5.69027ZM10.3872 3.23927L12.437 5.69787L12.3218 5.79392L10.2719 3.33532L10.3872 3.23927Z" fill="#272727"/>
<path fill-rule="evenodd" clip-rule="evenodd" d="M3.64967 11.7458L4.10715 11.3321L1.98702 8.85613L1.52954 9.2699L3.64967 11.7458ZM4.40416 11.0763L4.86165 10.6625L2.81751 8.22242L2.36003 8.63619L4.40416 11.0763ZM5.61268 9.98468L5.1552 10.3984L3.10539 7.93984L3.56287 7.52608L5.61268 9.98468Z" fill="#272727"/>
<path d="M4.10715 11.3321L4.16412 11.2833L4.21159 11.3387L4.15746 11.3877L4.10715 11.3321ZM3.64967 11.7458L3.69998 11.8015L3.64282 11.8532L3.5927 11.7946L3.64967 11.7458ZM1.98702 8.85613L1.93671 8.80051L1.99387 8.74882L2.04399 8.80735L1.98702 8.85613ZM1.52954 9.2699L1.47257 9.31868L1.4251 9.26324L1.47923 9.21427L1.52954 9.2699ZM4.86165 10.6625L4.91914 10.6143L4.96551 10.6697L4.91195 10.7181L4.86165 10.6625ZM4.40416 11.0763L4.45447 11.1319L4.3967 11.1841L4.34667 11.1244L4.40416 11.0763ZM2.81751 8.22242L2.76721 8.1668L2.82498 8.11455L2.87501 8.17426L2.81751 8.22242ZM2.36003 8.63619L2.30254 8.68435L2.25617 8.629L2.30973 8.58056L2.36003 8.63619ZM5.1552 10.3984L5.20551 10.4541L5.1476 10.5064L5.0976 10.4465L5.1552 10.3984ZM5.61268 9.98468L5.67029 9.93665L5.71642 9.99198L5.66299 10.0403L5.61268 9.98468ZM3.10539 7.93984L3.04779 7.98787L3.00166 7.93254L3.05508 7.88422L3.10539 7.93984ZM3.56287 7.52608L3.51256 7.47045L3.57048 7.41808L3.62048 7.47805L3.56287 7.52608ZM4.15746 11.3877L3.69998 11.8015L3.59936 11.6902L4.05684 11.2765L4.15746 11.3877ZM2.04399 8.80735L4.16412 11.2833L4.05018 11.3809L1.93005 8.90492L2.04399 8.80735ZM1.47923 9.21427L1.93671 8.80051L2.03733 8.91176L1.57985 9.32552L1.47923 9.21427ZM3.5927 11.7946L1.47257 9.31868L1.58651 9.22112L3.70664 11.6971L3.5927 11.7946ZM4.91195 10.7181L4.45447 11.1319L4.35386 11.0206L4.81134 10.6069L4.91195 10.7181ZM2.87501 8.17426L4.91914 10.6143L4.80415 10.7107L2.76002 8.27059L2.87501 8.17426ZM2.30973 8.58056L2.76721 8.1668L2.86782 8.27805L2.41034 8.69181L2.30973 8.58056ZM4.34667 11.1244L2.30254 8.68435L2.41753 8.58802L4.46166 11.0281L4.34667 11.1244ZM5.1049 10.3428L5.56238 9.92905L5.66299 10.0403L5.20551 10.4541L5.1049 10.3428ZM3.163 7.89181L5.21281 10.3504L5.0976 10.4465L3.04779 7.98787L3.163 7.89181ZM3.61318 7.5817L3.1557 7.99547L3.05508 7.88422L3.51256 7.47045L3.61318 7.5817ZM5.55508 10.0327L3.50527 7.57411L3.62048 7.47805L5.67029 9.93665L5.55508 10.0327Z" fill="#272727"/>
<path fill-rule="evenodd" clip-rule="evenodd" d="M12.2926 11.7458L11.8351 11.3321L13.9552 8.85613L14.4127 9.2699L12.2926 11.7458ZM11.5381 11.0763L11.0806 10.6625L13.1247 8.22242L13.5822 8.63619L11.5381 11.0763ZM10.3295 9.98468L10.787 10.3984L12.8368 7.93984L12.3794 7.52608L10.3295 9.98468Z" fill="#272727"/>
<path d="M11.8351 11.3321L11.7781 11.2833L11.7306 11.3387L11.7848 11.3877L11.8351 11.3321ZM12.2926 11.7458L12.2423 11.8015L12.2994 11.8532L12.3495 11.7946L12.2926 11.7458ZM13.9552 8.85613L14.0055 8.80051L13.9484 8.74882L13.8982 8.80735L13.9552 8.85613ZM14.4127 9.2699L14.4697 9.31868L14.5171 9.26324L14.463 9.21427L14.4127 9.2699ZM11.0806 10.6625L11.0231 10.6143L10.9767 10.6697L11.0303 10.7181L11.0806 10.6625ZM11.5381 11.0763L11.4878 11.1319L11.5455 11.1841L11.5956 11.1244L11.5381 11.0763ZM13.1247 8.22242L13.175 8.1668L13.1172 8.11455L13.0672 8.17426L13.1247 8.22242ZM13.5822 8.63619L13.6397 8.68435L13.6861 8.629L13.6325 8.58056L13.5822 8.63619ZM10.787 10.3984L10.7367 10.4541L10.7946 10.5064L10.8446 10.4465L10.787 10.3984ZM10.3295 9.98468L10.2719 9.93665L10.2258 9.99198L10.2792 10.0403L10.3295 9.98468ZM12.8368 7.93984L12.8944 7.98787L12.9406 7.93254L12.8871 7.88422L12.8368 7.93984ZM12.3794 7.52608L12.4297 7.47045L12.3718 7.41808L12.3218 7.47805L12.3794 7.52608ZM11.7848 11.3877L12.2423 11.8015L12.3429 11.6902L11.8854 11.2765L11.7848 11.3877ZM13.8982 8.80735L11.7781 11.2833L11.892 11.3809L14.0122 8.90492L13.8982 8.80735ZM14.463 9.21427L14.0055 8.80051L13.9049 8.91176L14.3624 9.32552L14.463 9.21427ZM12.3495 11.7946L14.4697 9.31868L14.3557 9.22112L12.2356 11.6971L12.3495 11.7946ZM11.0303 10.7181L11.4878 11.1319L11.5884 11.0206L11.1309 10.6069L11.0303 10.7181ZM13.0672 8.17426L11.0231 10.6143L11.1381 10.7107L13.1822 8.27059L13.0672 8.17426ZM13.6325 8.58056L13.175 8.1668L13.0744 8.27805L13.5319 8.69181L13.6325 8.58056ZM11.5956 11.1244L13.6397 8.68435L13.5247 8.58802L11.4806 11.0281L11.5956 11.1244ZM10.8373 10.3428L10.3799 9.92905L10.2792 10.0403L10.7367 10.4541L10.8373 10.3428ZM12.7792 7.89181L10.7294 10.3504L10.8446 10.4465L12.8944 7.98787L12.7792 7.89181ZM12.329 7.5817L12.7865 7.99547L12.8871 7.88422L12.4297 7.47045L12.329 7.5817ZM10.3872 10.0327L12.437 7.57411L12.3218 7.47805L10.2719 9.93665L10.3872 10.0327Z" fill="#272727"/>
</g>
</g>
</svg>
