<svg width="16" height="13" viewBox="0 0 16 13" fill="none" xmlns="http://www.w3.org/2000/svg">
<mask id="mask0_356_120" style="mask-type:luminance" maskUnits="userSpaceOnUse" x="0" y="0" width="16" height="13">
<rect y="0.5" width="16" height="12" fill="white"/>
</mask>
<g mask="url(#mask0_356_120)">
<path fill-rule="evenodd" clip-rule="evenodd" d="M0 0.5V12.5H16V0.5H0Z" fill="#FFB400"/>
<mask id="mask1_356_120" style="mask-type:luminance" maskUnits="userSpaceOnUse" x="0" y="0" width="16" height="13">
<path fill-rule="evenodd" clip-rule="evenodd" d="M0 0.5V12.5H16V0.5H0Z" fill="white"/>
</mask>
<g mask="url(#mask1_356_120)">
<path fill-rule="evenodd" clip-rule="evenodd" d="M0 0.5V3.5H16V0.5H0Z" fill="#C51918"/>
<path fill-rule="evenodd" clip-rule="evenodd" d="M0 9.5V12.5H16V9.5H0Z" fill="#C51918"/>
<rect x="2.50403" y="5.63599" width="0.56" height="2.912" fill="#F1F9FF"/>
<path fill-rule="evenodd" clip-rule="evenodd" d="M3.28803 5.13208H2.28003V5.41208H2.44803V5.63608H3.12003V5.41208H3.28803V5.13208Z" fill="#C88A02"/>
<path fill-rule="evenodd" clip-rule="evenodd" d="M3.12003 8.71594H3.28803V8.99594H2.28003V8.71594H2.44803V8.49194H3.12003V8.71594Z" fill="#C88A02"/>
<path fill-rule="evenodd" clip-rule="evenodd" d="M2.78403 5.18802C2.90589 5.18802 2.91828 5.14213 2.99018 5.0736C3.04601 5.02038 3.17603 4.95437 3.17603 4.88002C3.17603 4.70992 3.00052 4.57202 2.78403 4.57202C2.56753 4.57202 2.39203 4.70992 2.39203 4.88002C2.39203 4.96286 2.48157 5.01824 2.54927 5.0736C2.6206 5.13192 2.67296 5.18802 2.78403 5.18802Z" fill="#AD1619"/>
<path fill-rule="evenodd" clip-rule="evenodd" d="M2.28003 8.99609H3.28803V9.44409C3.28803 9.44409 3.16203 9.38809 3.03603 9.38809C2.91003 9.38809 2.78403 9.44409 2.78403 9.44409C2.78403 9.44409 2.65803 9.38809 2.53203 9.38809C2.40603 9.38809 2.28003 9.44409 2.28003 9.44409V8.99609Z" fill="#005BBF"/>
<mask id="mask2_356_120" style="mask-type:luminance" maskUnits="userSpaceOnUse" x="2" y="8" width="2" height="2">
<path fill-rule="evenodd" clip-rule="evenodd" d="M2.28003 8.99609H3.28803V9.44409C3.28803 9.44409 3.16203 9.38809 3.03603 9.38809C2.91003 9.38809 2.78403 9.44409 2.78403 9.44409C2.78403 9.44409 2.65803 9.38809 2.53203 9.38809C2.40603 9.38809 2.28003 9.44409 2.28003 9.44409V8.99609Z" fill="white"/>
</mask>
<g mask="url(#mask2_356_120)">
</g>
<rect x="7.992" y="5.63599" width="0.56" height="2.912" fill="#F1F9FF"/>
<path fill-rule="evenodd" clip-rule="evenodd" d="M8.77601 5.13208H7.76801V5.41208H7.93601V5.63608H8.60801V5.41208H8.77601V5.13208Z" fill="#C88A02"/>
<path fill-rule="evenodd" clip-rule="evenodd" d="M8.60801 8.71594H8.77601V8.99594H7.76801V8.71594H7.93601V8.49194H8.60801V8.71594Z" fill="#C88A02"/>
<path fill-rule="evenodd" clip-rule="evenodd" d="M8.272 5.18802C8.39387 5.18802 8.40626 5.14213 8.47815 5.0736C8.53398 5.02038 8.664 4.95437 8.664 4.88002C8.664 4.70992 8.4885 4.57202 8.272 4.57202C8.05551 4.57202 7.88 4.70992 7.88 4.88002C7.88 4.96286 7.96954 5.01824 8.03725 5.0736C8.10857 5.13192 8.16093 5.18802 8.272 5.18802Z" fill="#AD1619"/>
<path fill-rule="evenodd" clip-rule="evenodd" d="M7.76801 8.99609H8.77601V9.44409C8.77601 9.44409 8.65001 9.38809 8.52401 9.38809C8.39801 9.38809 8.27201 9.44409 8.27201 9.44409C8.27201 9.44409 8.14601 9.38809 8.02001 9.38809C7.89401 9.38809 7.76801 9.44409 7.76801 9.44409V8.99609Z" fill="#005BBF"/>
<mask id="mask3_356_120" style="mask-type:luminance" maskUnits="userSpaceOnUse" x="7" y="8" width="2" height="2">
<path fill-rule="evenodd" clip-rule="evenodd" d="M7.76801 8.99609H8.77601V9.44409C8.77601 9.44409 8.65001 9.38809 8.52401 9.38809C8.39801 9.38809 8.27201 9.44409 8.27201 9.44409C8.27201 9.44409 8.14601 9.38809 8.02001 9.38809C7.89401 9.38809 7.76801 9.44409 7.76801 9.44409V8.99609Z" fill="white"/>
</mask>
<g mask="url(#mask3_356_120)">
</g>
<path fill-rule="evenodd" clip-rule="evenodd" d="M2.494 8.33994C2.59496 8.21754 2.65142 8.10618 2.65142 7.98791C2.65142 7.91334 2.62923 7.84893 2.59035 7.79631L2.59692 7.79336C2.59632 7.79363 2.70768 7.74509 2.74645 7.72649C2.81853 7.69194 2.88203 7.65533 2.94394 7.61031C2.98346 7.58156 3.03642 7.55025 3.11715 7.5069L3.2135 7.45568C3.25274 7.43474 3.28196 7.4187 3.3091 7.40295C3.39369 7.35389 3.44958 7.31334 3.49233 7.25912C3.59359 7.13072 3.57257 6.95666 3.43067 6.86005C3.36115 6.81272 3.26734 6.78556 3.12983 6.76418L2.93315 6.73369C2.86734 6.72336 2.80863 6.71372 2.75627 6.70457C3.10055 6.64728 3.59217 6.66834 3.80842 6.77999L4.01395 6.38192C3.57328 6.15439 2.56921 6.17763 2.19415 6.43592C1.91905 6.62538 1.95596 6.91176 2.24219 7.03508C2.36179 7.08661 2.51771 7.1208 2.80623 7.16715C2.75788 7.1952 2.71779 7.22083 2.68044 7.24799C2.64257 7.27553 2.60198 7.29893 2.55276 7.32253C2.52922 7.33382 2.45952 7.36442 2.42756 7.37845L2.42754 7.37846L2.42754 7.37847L2.41148 7.38554C2.17834 7.49155 2.06519 7.6382 2.099 7.90293L2.1173 8.04624L2.15014 8.05632L2.494 8.33994ZM2.20581 7.9696L2.2051 7.97166L2.20564 7.9702L2.20581 7.9696ZM8.353 7.98791C8.353 8.10618 8.40946 8.21754 8.51042 8.33994L8.85429 8.05632L8.88712 8.04624L8.90542 7.90293C8.93923 7.6382 8.82608 7.49155 8.59294 7.38554L8.57688 7.37846C8.54493 7.36444 8.47521 7.33382 8.45166 7.32253C8.40244 7.29893 8.36186 7.27553 8.32398 7.24799C8.28663 7.22083 8.24654 7.1952 8.19819 7.16715C8.48672 7.1208 8.64263 7.08661 8.76223 7.03508C9.04846 6.91176 9.08537 6.62538 8.81027 6.43592C8.43521 6.17763 7.43114 6.15439 6.99047 6.38192L7.196 6.77999C7.41225 6.66834 7.90387 6.64728 8.24815 6.70457C8.1958 6.71372 8.13708 6.72336 8.07127 6.73369L7.87459 6.76418C7.73708 6.78556 7.64327 6.81272 7.57375 6.86005C7.43185 6.95666 7.41083 7.13072 7.51209 7.25912C7.55484 7.31334 7.61074 7.35389 7.69532 7.40295C7.72246 7.4187 7.75168 7.43474 7.79092 7.45568L7.88727 7.5069C7.968 7.55025 8.02096 7.58156 8.06048 7.61031C8.1224 7.65533 8.18589 7.69194 8.25797 7.72649C8.29674 7.74509 8.4081 7.79363 8.4075 7.79336L8.41407 7.79631C8.37519 7.84893 8.353 7.91334 8.353 7.98791Z" fill="#AD1619"/>
<path d="M2.96171 6.69995L3.127 6.73415V6.98052C2.95095 7.12098 2.50403 7.35773 2.50403 7.35773V6.69995H2.96171Z" fill="#F1F9FF"/>
<path d="M8.15731 6.69995L7.99202 6.73415V6.98052C8.16807 7.12098 8.61499 7.35773 8.61499 7.35773V6.69995H8.15731Z" fill="#F1F9FF"/>
<path fill-rule="evenodd" clip-rule="evenodd" d="M7.38801 4.10314V4.02114C7.09997 3.81442 6.79833 3.71106 6.4831 3.71106C6.18088 3.57732 5.87499 3.52541 5.5654 3.55532C5.56549 3.55437 5.56553 3.55388 5.56553 3.55388C5.10004 3.50833 4.63093 3.71106 4.63093 3.71106C4.15807 3.71106 3.72601 4.02114 3.72601 4.02114V4.10314L4.29083 4.6704C4.29083 4.6704 4.44975 5.2162 5.56264 5.08814C5.56303 5.08902 5.56323 5.08946 5.56323 5.08946C5.56323 5.08946 6.30041 5.06934 6.3522 5.05211C6.37276 5.04527 6.39407 5.03905 6.41585 5.03269C6.56024 4.99054 6.72508 4.94241 6.82319 4.6704L7.38801 4.10314ZM5.56287 3.58465C5.56054 3.61217 5.55685 3.65696 5.55248 3.71424C5.55802 3.67319 5.56174 3.63013 5.56287 3.58465Z" fill="#AD1619"/>
<path fill-rule="evenodd" clip-rule="evenodd" d="M3.75989 4.19923L3.79826 4.15845L4.31111 4.64095C4.40846 4.61477 4.93687 4.48012 5.52711 4.47349V4.47324L5.54957 4.4733L5.57202 4.47324V4.47349C6.22597 4.48084 6.80402 4.64533 6.80402 4.64533C6.80402 4.64533 6.79783 4.69841 6.78278 4.76081C6.79871 4.72814 6.81758 4.69184 6.8394 4.65178L6.8448 4.64478L7.36172 4.15845L7.40009 4.19923L6.88644 4.68249C6.8115 4.8205 6.77376 4.9116 6.77376 4.94944C6.77376 5.00717 6.62357 5.04144 6.33044 5.07663C6.1008 5.1042 5.82978 5.12271 5.60809 5.12548V5.12584L5.57999 5.12574L5.55189 5.12584V5.12548C5.3302 5.12271 5.05918 5.1042 4.82954 5.07663C4.53641 5.04144 4.38622 5.00717 4.38622 4.94944C4.38622 4.94228 4.38487 4.93322 4.38217 4.92229C4.35261 4.88465 4.33183 4.82307 4.318 4.76752C4.30502 4.74154 4.2902 4.71318 4.27354 4.68249L3.75989 4.19923ZM6.62653 4.95054C6.66576 4.9689 6.69721 4.95058 6.72208 4.91542C6.71993 4.92513 6.71858 4.93391 6.71804 4.94178C6.71476 4.94393 6.70972 4.94651 6.70311 4.94929C6.68466 4.95705 6.65649 4.96531 6.61985 4.97367C6.54781 4.9901 6.44528 5.00644 6.32376 5.02103C6.08647 5.04952 5.80431 5.06827 5.57999 5.06974C5.35567 5.06827 5.07351 5.04952 4.83622 5.02103C4.7147 5.00644 4.61217 4.9901 4.54014 4.97367C4.50942 4.96666 4.48465 4.95972 4.46658 4.9531L4.47261 4.95054C4.59495 4.89329 5.40389 4.83958 5.54957 4.83031C5.69525 4.83958 6.50419 4.89329 6.62653 4.95054ZM6.7808 4.94028L6.77995 4.94126L6.78046 4.94055L6.7808 4.94028Z" fill="#C88A02"/>
<path fill-rule="evenodd" clip-rule="evenodd" d="M5.55612 3.17365C5.64891 3.17365 5.72412 3.09843 5.72412 3.00565C5.72412 2.91286 5.64891 2.83765 5.55612 2.83765C5.46334 2.83765 5.38812 2.91286 5.38812 3.00565C5.38812 3.09843 5.46334 3.17365 5.55612 3.17365Z" fill="#005BBF"/>
<path fill-rule="evenodd" clip-rule="evenodd" d="M5.49343 2.53833H5.6101V2.61203H5.68633V2.7287H5.6101V2.96203H5.68633V3.0787H5.41602V2.96203H5.49343V2.7287H5.41602V2.61203H5.49343V2.53833Z" fill="#C88A02"/>
<rect x="5.47198" y="3.17212" width="0.224" height="0.728" fill="#C88A02"/>
<path d="M3.85388 4.14855L3.54626 4.13699C3.6914 3.29819 4.40619 2.88721 5.5484 2.88721C6.69209 2.88721 7.40435 3.29997 7.53857 4.14188L7.12253 4.18552C7.05721 3.77582 6.37098 3.40505 5.55441 3.40505C4.73636 3.40505 3.92531 3.73573 3.85388 4.14855Z" fill="#C88A02"/>
<path opacity="0.3" fill-rule="evenodd" clip-rule="evenodd" d="M3.73602 5.13208H7.37602V8.4025C7.37602 8.4025 7.10564 9.50008 5.55602 9.50008C4.00641 9.50008 3.73602 8.37356 3.73602 8.37356V5.13208Z" fill="#E1E5E8"/>
<mask id="mask4_356_120" style="mask-type:luminance" maskUnits="userSpaceOnUse" x="3" y="5" width="5" height="5">
<path fill-rule="evenodd" clip-rule="evenodd" d="M3.73602 5.13208H7.37602V8.4025C7.37602 8.4025 7.10564 9.50008 5.55602 9.50008C4.00641 9.50008 3.73602 8.37356 3.73602 8.37356V5.13208Z" fill="white"/>
</mask>
<g mask="url(#mask4_356_120)">
<rect x="3.73602" y="7.14819" width="1.848" height="2.184" fill="#FFC034"/>
<rect x="3.73602" y="5.07617" width="1.848" height="2.128" fill="#AD1619"/>
<rect x="5.52802" y="7.09204" width="1.848" height="2.128" fill="#AD1619"/>
<rect x="5.52802" y="5.13208" width="1.96" height="2.072" fill="#F1F9FF"/>
<path fill-rule="evenodd" clip-rule="evenodd" d="M6.74139 9.22153C6.74139 9.22153 5.55529 9.31478 5.55529 8.5498C5.55529 8.5498 5.54398 9.22153 4.30548 9.22153V9.82544H6.74139V9.22153Z" fill="#F1F9FF"/>
<path fill-rule="evenodd" clip-rule="evenodd" d="M5.55605 7.5962C5.78801 7.5962 5.97605 7.39562 5.97605 7.1482C5.97605 6.90077 5.78801 6.7002 5.55605 6.7002C5.32409 6.7002 5.13605 6.90077 5.13605 7.1482C5.13605 7.39562 5.32409 7.5962 5.55605 7.5962Z" fill="#005BBF" stroke="#AD1619" stroke-width="0.583333"/>
</g>
<path fill-rule="evenodd" clip-rule="evenodd" d="M4.5 6.5C4.77614 6.5 5 6.27614 5 6C5 5.72386 4.77614 5.5 4.5 5.5C4.22386 5.5 4 5.72386 4 6C4 6.27614 4.22386 6.5 4.5 6.5Z" fill="#C88A02"/>
<path fill-rule="evenodd" clip-rule="evenodd" d="M6.5 6.5C6.77614 6.5 7 6.27614 7 6C7 5.72386 6.77614 5.5 6.5 5.5C6.22386 5.5 6 5.72386 6 6C6 6.27614 6.22386 6.5 6.5 6.5Z" fill="#C37C9C"/>
<path fill-rule="evenodd" clip-rule="evenodd" d="M6.5 8.5C6.77614 8.5 7 8.27614 7 8C7 7.72386 6.77614 7.5 6.5 7.5C6.22386 7.5 6 7.72386 6 8C6 8.27614 6.22386 8.5 6.5 8.5Z" fill="#FFC034"/>
<path d="M4.5 8.5C4.77614 8.5 5 8.27614 5 8C5 7.72386 4.77614 7.5 4.5 7.5C4.22386 7.5 4 7.72386 4 8C4 8.27614 4.22386 8.5 4.5 8.5Z" fill="#AD1619"/>
</g>
</g>
</svg>
