<svg width="16" height="13" viewBox="0 0 16 13" fill="none" xmlns="http://www.w3.org/2000/svg">
<path d="M0 0.5H16V12.5H0V0.5Z" fill="#FFB700"/>
<path d="M0.667419 6.49998L2.86742 1.16748H5.06742V11.8325H2.86742L0.667419 6.49998Z" fill="#FF5B00"/>
<path d="M0.667419 1.16748H2.86742V11.8325H0.667419V1.16748Z" fill="#005641"/>
<path d="M5.7325 1.16748H15.4V11.8325H5.7325V1.16748Z" fill="#8D2029"/>
<path d="M14.4796 10.7329C14.4796 10.7329 14.5592 10.9149 14.6476 10.9921C14.7802 11.1018 15.0455 11.0918 15.1627 11.2239C15.2975 11.376 15.1516 11.5778 15.1516 11.5978L15.1604 11.7025C15.1604 11.7025 15.0676 11.7025 15.0278 11.7099C14.9703 11.7199 14.9482 11.7747 14.8377 11.7673C14.5658 11.7473 14.5769 11.4682 14.5614 11.2314C14.5481 11.1417 14.5172 11.022 14.4973 10.9323C14.4818 10.8575 14.4796 10.7329 14.4796 10.7329Z" fill="#FFB700" stroke="#000008" stroke-width="0.335856"/>
<path d="M6.67688 10.7329C6.67688 10.7329 6.5973 10.9149 6.50888 10.9921C6.37625 11.1018 6.11099 11.0918 5.99384 11.2239C5.859 11.376 6.00489 11.5778 6.00489 11.5978L5.99605 11.7025C5.99605 11.7025 6.08889 11.7025 6.12868 11.7099C6.18615 11.7199 6.20826 11.7747 6.31878 11.7673C6.59067 11.7473 6.57962 11.4682 6.59509 11.2314C6.60835 11.1417 6.6393 11.022 6.6592 10.9323C6.67467 10.8575 6.67688 10.7329 6.67688 10.7329Z" fill="#FFB700" stroke="#000008" stroke-width="0.335856"/>
<path d="M14.4796 2.32861C14.4796 2.32861 14.5592 2.14667 14.6476 2.0694C14.7802 1.95973 15.0455 1.9697 15.1627 1.8376C15.2975 1.68556 15.1516 1.48368 15.1516 1.46374L15.1604 1.35905C15.1604 1.35905 15.0676 1.35906 15.0278 1.35158C14.9703 1.34161 14.9482 1.28677 14.8377 1.29425C14.5658 1.31419 14.5769 1.59334 14.5614 1.83013C14.5481 1.91985 14.5172 2.03949 14.4973 2.12922C14.4818 2.20399 14.4796 2.32861 14.4796 2.32861Z" fill="#FFB700" stroke="#000008" stroke-width="0.335856"/>
<path d="M6.67918 2.32861C6.67918 2.32861 6.59961 2.14667 6.51119 2.0694C6.37856 1.95973 6.1133 1.9697 5.99614 1.8376C5.8613 1.68556 6.00719 1.48368 6.00719 1.46374L5.99835 1.35905C5.99835 1.35905 6.09119 1.35906 6.13098 1.35158C6.18846 1.34161 6.21056 1.28677 6.32108 1.29425C6.59297 1.31419 6.58192 1.59334 6.5974 1.83013C6.61066 1.91985 6.64161 2.03949 6.6615 2.12922C6.67697 2.20399 6.67918 2.32861 6.67918 2.32861Z" fill="#FFB700" stroke="#000008" stroke-width="0.335856"/>
<path d="M9.25871 9.01818L9.30955 8.98328L9.33165 9.01818C9.36039 9.06304 9.44218 9.06055 9.49523 9.01818L9.53723 8.98079L9.5726 9.01569C9.61681 9.06304 9.7008 9.06304 9.75607 9.01569C9.79364 8.98578 9.80028 8.98328 9.82238 9.00821C9.83785 9.02316 9.88206 9.03812 9.91964 9.0456C9.99038 9.05556 9.99038 9.05557 10.0302 8.98578C10.0655 8.92845 10.07 8.90602 10.0633 8.84869C10.0572 8.80491 10.0527 8.76083 10.0501 8.71659C10.0456 8.65179 10.0479 8.65179 10.1296 8.6169C10.1702 8.60285 10.2101 8.58621 10.249 8.56705C10.2822 8.54462 10.375 8.42249 10.375 8.39756C10.375 8.39258 10.3396 8.38261 10.2954 8.37762C10.1186 8.3527 10.0898 8.24802 10.2048 8.05361C10.3883 7.72959 10.501 7.41803 10.501 7.22113C10.501 7.1314 10.5076 7.10149 10.5165 7.12143C10.5585 7.1987 10.4833 7.53019 10.3728 7.76947L10.3286 7.86418L10.3706 7.85421C10.3927 7.84673 10.5342 7.77944 10.68 7.70466C11.0824 7.50028 11.2194 7.4604 11.4802 7.47287C11.6991 7.48284 11.7897 7.53019 11.9444 7.71214C12.0262 7.81184 12.1058 7.87913 12.2495 7.98132C12.5545 8.19567 12.5678 8.21561 12.5833 8.46984C12.5988 8.72656 12.5899 8.74152 12.4175 8.78389C12.2694 8.82128 12.1765 8.89854 12.1522 9.00821C12.139 9.06304 12.1677 9.06554 12.2407 9.0107L12.2959 8.97082L12.3202 9.0107C12.3534 9.06304 12.4197 9.06304 12.475 9.0107L12.5192 8.97331L12.5634 9.0107C12.6297 9.07301 12.7181 9.05806 12.7446 8.98079C12.7491 8.96833 12.7623 8.97082 12.7889 8.99824C12.8397 9.04809 12.9657 9.06803 12.979 9.02815C12.9834 9.01319 12.9745 8.9783 12.9569 8.94839C12.8839 8.82377 12.8596 8.76644 12.8596 8.69915C12.8596 8.60443 12.8817 8.55708 12.979 8.4823C13.0939 8.38759 13.1293 8.26796 13.0409 8.26796C12.9878 8.26796 12.9325 8.21312 12.8972 8.12589C12.8264 7.94643 12.8419 7.74704 12.948 7.41305C13.0294 7.21654 13.0702 7.0018 13.0674 6.78495C13.0674 6.60051 13.063 6.5706 13.0276 6.46841C12.9999 6.39737 12.9658 6.32971 12.9259 6.26653L12.864 6.17431L12.9414 6.09953C13.1801 5.87771 13.1315 5.51381 12.8441 5.37423C12.7557 5.32937 12.7336 5.32688 12.5789 5.32688C12.4904 5.32688 12.3468 5.34183 12.2694 5.35928C12.1655 5.37781 12.0606 5.3878 11.9555 5.38919C11.8052 5.38919 11.7787 5.3842 11.7212 5.34931C11.6615 5.31442 11.6505 5.29697 11.6394 5.21223C11.6383 5.20424 11.6356 5.19666 11.6313 5.19015C11.6271 5.18364 11.6215 5.17838 11.6151 5.17484C11.593 5.16736 11.5001 5.25958 11.4869 5.29946C11.478 5.32189 11.4736 5.3194 11.4537 5.29198C11.435 5.26482 11.4201 5.23456 11.4095 5.20226C11.3874 5.12001 11.4161 5.06019 11.5024 5.01283L11.5687 4.97794L11.5289 4.95052C11.4493 4.89319 11.3122 4.93307 11.2636 5.02529C11.2481 5.05022 11.2327 5.07514 11.2283 5.07514C11.2238 5.07514 11.1973 5.05022 11.1708 5.01782C11.0669 4.90316 11.1023 4.73368 11.2415 4.68383C11.3145 4.65641 11.3808 4.67635 11.394 4.73368C11.4161 4.81593 11.478 4.70626 11.467 4.60407C11.4604 4.53677 11.4604 4.53428 11.5024 4.53428C11.5598 4.53428 11.6792 4.61903 11.719 4.68383C11.7632 4.76109 11.7588 4.88322 11.7101 4.97295L11.6726 5.04274L11.7234 5.03277C11.7941 5.01532 11.8649 4.96547 11.9002 4.90316C11.9189 4.86348 11.9293 4.81957 11.9309 4.77469C11.9324 4.72982 11.925 4.68513 11.9091 4.64395C11.8759 4.57665 11.8803 4.56668 11.929 4.58912C12.0086 4.6265 12.0528 4.66887 12.0837 4.74115C12.1147 4.80596 12.1169 4.82091 12.1014 4.8907C12.0908 4.93319 12.0744 4.97356 12.0528 5.01034C12.0262 5.05022 12.024 5.05769 12.0461 5.05769C12.0859 5.05769 12.1655 5.01532 12.1942 4.98292C12.2097 4.96298 12.2318 4.92061 12.2429 4.88322L12.265 4.82091L12.2871 4.87076C12.3202 4.93806 12.3865 5.00037 12.4661 5.04025C12.5523 5.08013 12.5877 5.08262 12.5435 5.04523C12.5125 5.02031 12.4551 4.83337 12.475 4.81593C12.5704 4.87616 12.6575 4.95173 12.7336 5.04025C12.8596 5.16736 12.9392 5.20973 13.0541 5.20973C13.2022 5.20973 13.2884 5.06517 13.2221 4.92809C13.1845 4.84833 13.0983 4.83587 13.0453 4.90316C13.0232 4.93556 13.0165 4.96049 13.0232 4.99538C13.032 5.03526 13.0298 5.04025 12.9966 5.04025C12.9524 5.04025 12.8684 4.97794 12.7181 4.83587C12.5089 4.63284 12.2684 4.47486 12.0086 4.36978C11.8325 4.32391 11.6508 4.31294 11.4714 4.33738C11.3299 4.36729 11.1619 4.45951 11.0691 4.55671C10.9077 4.73118 10.9055 4.96298 11.0625 5.17484L11.1067 5.23466L11.0779 5.28949C11.0563 5.32877 11.0456 5.37443 11.0472 5.42062C11.0488 5.46681 11.0626 5.51142 11.0868 5.5487C11.1089 5.5836 11.131 5.61102 11.1376 5.61102C11.142 5.61102 11.1465 5.58858 11.1487 5.56117C11.1531 5.49387 11.1796 5.44901 11.2238 5.43156C11.2636 5.41411 11.2901 5.42408 11.4714 5.50633C11.6637 5.59108 11.9798 5.59606 12.3158 5.52129C12.4614 5.48337 12.613 5.48507 12.7579 5.52627C12.9171 5.60105 12.9524 5.79296 12.8375 5.93753C12.7866 6.00233 12.7402 6.02725 12.5789 6.0771C12.4384 6.11888 12.2923 6.13154 12.1478 6.11449C11.9091 6.112 11.8229 6.11698 11.7278 6.13941C11.6195 6.16434 11.5554 6.16683 11.2459 6.15935L10.8856 6.14938L10.9254 6.18428C10.9467 6.20561 10.9697 6.22479 10.9939 6.2416C11.0227 6.25905 11.0205 6.26154 10.9807 6.27899C10.9586 6.28896 10.9055 6.29644 10.8635 6.29644H10.7906L10.7817 6.36622C10.7758 6.39912 10.7758 6.43303 10.7817 6.46592C10.7906 6.49085 10.7862 6.49583 10.764 6.48586C10.7486 6.47838 10.7066 6.46592 10.669 6.45844C10.6311 6.44928 10.5941 6.43592 10.5585 6.41857C10.5165 6.39364 10.5121 6.39364 10.4966 6.42604C10.4833 6.45097 10.3595 6.55565 10.3418 6.55565C10.3339 6.49099 10.3175 6.428 10.2932 6.36872C10.2711 6.31638 10.2512 6.25656 10.2446 6.23911C10.238 6.21169 10.2335 6.2092 10.2225 6.23163C10.2158 6.24409 10.207 6.28148 10.2004 6.31139C10.1926 6.35176 10.1792 6.39047 10.1606 6.42604L10.1274 6.48088L10.1053 6.43352C10.0832 6.38367 10.0479 6.32884 10.0346 6.32884C10.0302 6.32884 10.0235 6.34379 10.0191 6.36622C10.0081 6.4061 9.92185 6.52325 9.89975 6.52325C9.89312 6.52325 9.88648 6.49085 9.88648 6.44848C9.88648 6.41109 9.87985 6.37619 9.87101 6.37619C9.86217 6.37619 9.85554 6.38866 9.85554 6.40112C9.85554 6.43103 9.78259 6.52574 9.75607 6.52574C9.74722 6.52574 9.72954 6.53571 9.71849 6.55066C9.69196 6.58307 9.66986 6.57808 9.68091 6.54069C9.68401 6.50877 9.68099 6.47648 9.67207 6.44598L9.64996 6.36622C9.64554 6.35376 9.61902 6.35875 9.56154 6.37869C9.47312 6.41109 9.44218 6.40361 9.4886 6.36373C9.50628 6.34878 9.53281 6.29644 9.54607 6.24908C9.56154 6.19923 9.58365 6.15686 9.5947 6.15187C9.61017 6.14689 9.61017 6.15187 9.59028 6.18178C9.57748 6.20074 9.56912 6.22303 9.56596 6.24659C9.56596 6.25905 9.55491 6.29145 9.54386 6.31887C9.5306 6.34379 9.52175 6.36872 9.52396 6.37121C9.52618 6.3737 9.56154 6.35875 9.60133 6.33881L9.67207 6.29893V6.33382C9.67207 6.35376 9.68091 6.40361 9.69196 6.44598L9.71186 6.52076L9.76049 6.49583C9.80912 6.47091 9.85554 6.38118 9.85554 6.3089C9.85554 6.274 9.87322 6.27899 9.88206 6.31638C9.88206 6.32635 9.89533 6.36872 9.90417 6.4086L9.92627 6.47838L9.95943 6.43352C9.97933 6.4086 10.0014 6.35875 10.0103 6.32635C10.028 6.26653 10.0545 6.23911 10.0545 6.28397C10.0545 6.31388 10.1296 6.42854 10.1429 6.41857C10.1517 6.41358 10.165 6.37121 10.1761 6.32385C10.1982 6.22416 10.2313 6.15935 10.2534 6.17431C10.2623 6.17929 10.2645 6.18926 10.2601 6.19923C10.2556 6.20422 10.2733 6.26902 10.2998 6.33881C10.3191 6.39112 10.3382 6.44346 10.3573 6.49583C10.3662 6.52076 10.375 6.52076 10.4303 6.46343C10.4634 6.42854 10.4966 6.39115 10.4988 6.37869C10.5054 6.35875 10.5121 6.36124 10.543 6.38367C10.6082 6.42249 10.6796 6.44622 10.753 6.45346C10.7574 6.44847 10.7618 6.40361 10.7618 6.35376L10.764 6.26154L10.8083 6.27151C10.8304 6.27899 10.8812 6.27899 10.9188 6.27151L10.9851 6.26154L10.9254 6.21169C10.8923 6.18677 10.8591 6.15437 10.8503 6.13941C10.8436 6.12446 10.8127 6.1095 10.7795 6.10701C10.6889 6.09704 10.5275 5.99734 10.5275 5.94749C10.5275 5.93753 10.5496 5.95497 10.5762 5.98239C10.6381 6.0447 10.722 6.08209 10.7972 6.08209H10.8503L10.8171 6.03224C10.7935 5.99359 10.7783 5.94917 10.7729 5.90263C10.7685 5.82786 10.7618 5.81789 10.6933 5.76555C10.6536 5.7338 10.6166 5.69792 10.5828 5.65837L10.5452 5.61102L10.5253 5.66834C10.5143 5.70074 10.5032 5.72567 10.4966 5.72567C10.4922 5.72567 10.4701 5.70573 10.4524 5.6833C10.4399 5.66705 10.4249 5.65353 10.4082 5.64342C10.4015 5.64342 10.3861 5.67333 10.3684 5.71071L10.3374 5.77801L10.3153 5.74062C10.2957 5.71006 10.2735 5.68168 10.249 5.65588C10.2225 5.63095 10.2114 5.61102 10.2203 5.61102C10.2291 5.61102 10.2578 5.63594 10.2866 5.66834L10.3352 5.72567L10.3573 5.6833C10.3701 5.65394 10.374 5.62067 10.3684 5.58858C10.3595 5.54372 10.3617 5.54123 10.375 5.57114C10.3941 5.59927 10.4164 5.62442 10.4413 5.64591L10.4899 5.69077L10.5231 5.62348C10.5563 5.55369 10.5563 5.55369 10.5695 5.59606C10.5916 5.6484 10.7353 5.78299 10.8569 5.86026C10.879 5.87272 10.8702 5.83284 10.8348 5.73564C10.8242 5.7037 10.8182 5.67003 10.8171 5.63594C10.8171 5.59108 10.806 5.57114 10.7552 5.52627C10.7236 5.50349 10.6971 5.47269 10.678 5.43634C10.6588 5.4 10.6474 5.3591 10.6447 5.31691C10.6381 5.27454 10.6248 5.22967 10.6137 5.21472C10.6005 5.18979 10.5961 5.20475 10.6005 5.27952C10.6049 5.33186 10.5983 5.39667 10.5872 5.42408L10.5695 5.47393L10.5563 5.43156C10.5474 5.40913 10.5121 5.36925 10.4789 5.34432C10.4457 5.3194 10.4214 5.29448 10.4258 5.28949C10.4303 5.28451 10.4656 5.30694 10.5032 5.33934C10.5629 5.39168 10.5739 5.39667 10.5828 5.37423C10.5916 5.34931 10.5828 5.23466 10.5651 5.1549C10.5563 5.11502 10.5563 5.11502 10.6005 5.16487C10.6314 5.19976 10.6491 5.24463 10.6646 5.3194C10.6823 5.41411 10.6911 5.43156 10.7685 5.50883C10.8149 5.55618 10.8569 5.59108 10.8591 5.58858C10.8635 5.5836 10.8679 5.46396 10.8724 5.3194C10.8812 5.04274 10.8724 4.97544 10.8127 4.8907L10.7817 4.84584L10.8304 4.78851C10.8848 4.72975 10.9212 4.6529 10.9343 4.56918L10.9431 4.50188L10.89 4.55921C10.8458 4.60656 10.8237 4.61653 10.7729 4.61653C10.722 4.61653 10.7022 4.60656 10.669 4.56668C10.6173 4.51062 10.5544 4.46956 10.4855 4.44705C10.459 4.43708 10.4502 4.44206 10.4502 4.462C10.4502 4.47696 10.4369 4.51684 10.4192 4.55422L10.3883 4.61903L10.322 4.54425C10.28 4.50188 10.2335 4.46449 10.196 4.45452C10.1053 4.4296 10.1009 4.4296 10.1009 4.50687C10.1009 4.62401 10.0567 4.64644 9.97711 4.56918C9.91522 4.50936 9.86659 4.4944 9.74943 4.51185L9.66102 4.52182L9.67649 4.56668C9.68975 4.60407 9.68754 4.62152 9.6588 4.66389C9.61238 4.73368 9.5527 4.76359 9.45986 4.76359C9.41565 4.76359 9.3626 4.77356 9.34049 4.78602C9.31839 4.79848 9.26092 4.81094 9.2145 4.81593C9.17029 4.82091 9.11945 4.83088 9.10397 4.83587C9.08187 4.84584 9.08187 4.83587 9.0885 4.78103C9.09955 4.69629 9.04429 4.63149 8.9625 4.63149C8.85419 4.63149 8.80556 4.74115 8.84756 4.88572C8.85615 4.91691 8.86353 4.94851 8.86966 4.98043C8.89869 5.04276 8.93766 5.09852 8.98461 5.14493C9.04208 5.20973 9.09513 5.27703 9.10397 5.29448C9.12177 5.32047 9.1444 5.34174 9.17029 5.35679L9.21892 5.3867L9.21229 5.32688C9.20565 5.26207 9.21671 5.2521 9.24765 5.29946C9.25871 5.31442 9.28744 5.34183 9.30955 5.35679C9.34713 5.38171 9.35376 5.38171 9.35376 5.36177C9.35376 5.34682 9.36039 5.31442 9.36923 5.28949L9.3847 5.24463L9.41344 5.30694C9.42891 5.34183 9.47975 5.4191 9.52618 5.48141C9.61681 5.59855 9.67428 5.73065 9.64554 5.76056C9.63228 5.77302 9.60133 5.77302 9.53502 5.75807C9.48639 5.7481 9.42449 5.74062 9.39797 5.74561C9.34713 5.75308 9.3427 5.74561 9.37586 5.70074C9.40902 5.65089 9.40239 5.64342 9.33607 5.64342C9.25871 5.64342 9.06639 5.60105 8.99124 5.56864C8.9205 5.53624 8.90282 5.54372 8.88071 5.62099L8.84313 5.76056L8.82103 5.83534L8.90061 5.82786C8.94163 5.82302 8.98227 5.81469 9.02218 5.80293C9.03784 5.79705 9.05433 5.79452 9.07081 5.79546C9.07524 5.79795 9.06418 5.82786 9.04871 5.86275L9.01776 5.92257L9.06639 5.9126C9.09292 5.90512 9.13271 5.89017 9.15481 5.87771C9.1946 5.85777 9.19902 5.85777 9.22997 5.91509C9.26755 5.98239 9.29628 5.9799 9.30292 5.90762C9.30955 5.83284 9.33165 5.84281 9.37365 5.94251C9.41344 6.03722 9.45323 6.07212 9.46207 6.01728C9.46428 5.99734 9.48418 5.96743 9.50849 5.94749C9.55712 5.91011 9.59249 5.92257 9.61238 5.9799C9.63449 6.04221 9.58586 6.10452 9.44881 6.19923C9.32189 6.27824 9.21268 6.38895 9.12954 6.52287C9.0464 6.65679 8.99153 6.81038 8.96913 6.97189C8.92713 7.266 9.05755 7.57007 9.31397 7.7919C9.43776 7.89658 9.63449 8.00625 9.62123 7.96637C9.56817 7.78442 9.57038 7.44296 9.62344 7.38563C9.63228 7.37566 9.63007 7.41056 9.61681 7.4629C9.5726 7.6598 9.5947 7.81433 9.70522 8.17823C9.80249 8.50723 9.78922 8.6493 9.64775 8.74152C9.60354 8.77143 9.57481 8.77641 9.45323 8.77392C9.3206 8.77392 9.30513 8.77392 9.26313 8.8138C9.21234 8.87228 9.1791 8.94725 9.16808 9.02815C9.16808 9.06055 9.19902 9.05556 9.2565 9.01818H9.25871Z" fill="#FFB700" stroke="#000008" stroke-width="1.70981"/>
<path d="M11.4028 9.01061L11.4581 8.97073L11.4956 9.01061C11.5443 9.06295 11.604 9.06046 11.6504 9.00811C11.6725 8.98319 11.6902 8.96824 11.6924 8.97073L11.7123 9.01061C11.7233 9.03304 11.7476 9.04301 11.7919 9.04799C11.8427 9.05049 11.8582 9.04799 11.8803 9.0131L11.9024 8.97073L11.9576 9.01061C12.108 9.12027 12.1875 9.00562 12.119 8.77881C12.0858 8.66416 12.1057 8.59936 12.2141 8.45479C12.2605 8.39248 12.2981 8.32519 12.2981 8.30525C12.2981 8.27783 12.2892 8.27285 12.2273 8.27534C12.1698 8.27534 12.1522 8.26786 12.1212 8.23047C12.0704 8.16816 12.0748 8.09588 12.1301 8.01612L12.1743 7.95381L12.0947 7.894C12.0312 7.84109 11.972 7.78187 11.9179 7.71703C11.8696 7.65282 11.8106 7.59996 11.7442 7.56147C11.6779 7.52298 11.6054 7.49962 11.531 7.49271L11.4271 7.48025V7.56998C11.4271 7.68214 11.4758 7.79181 11.604 7.97625C11.7499 8.18561 11.7587 8.21801 11.7653 8.49218L11.772 8.72398L11.7278 8.76884C11.6902 8.80872 11.6747 8.8162 11.5509 8.82367C11.4338 8.83115 11.4072 8.83863 11.3741 8.87352C11.3353 8.90543 11.3085 8.95255 11.2989 9.00562C11.2923 9.04301 11.2945 9.05049 11.3188 9.05049C11.3343 9.05049 11.3719 9.03304 11.4028 9.01061ZM8.25949 8.41242C8.27286 8.39029 8.28052 8.3644 8.2816 8.33765C8.2816 8.31272 8.29486 8.30276 8.35234 8.29279L8.42086 8.28282L8.37665 8.24044C8.32139 8.1906 8.31476 8.15321 8.36339 8.15321C8.41202 8.15321 8.4916 8.09838 8.50486 8.056C8.51149 8.03606 8.50486 8.01114 8.49602 7.99868C8.46949 7.96378 8.41865 7.96877 8.40981 8.00865C8.39876 8.04853 8.38328 8.04853 8.34349 8.00865C8.28823 7.94634 8.28602 7.81922 8.34349 7.74445C8.36781 7.70956 8.36781 7.70955 8.33465 7.67217C8.29928 7.63229 8.27276 7.55752 8.29044 7.53758C8.29486 7.53259 8.3236 7.53758 8.35234 7.55004C8.39655 7.56499 8.41202 7.56499 8.4297 7.55004C8.48054 7.50268 8.42528 7.44286 8.34128 7.45782C8.30592 7.4628 8.29265 7.45782 8.28823 7.43788C8.28381 7.42292 8.25507 7.40298 8.22192 7.39302C8.16223 7.37557 8.16223 7.37557 8.16223 7.42292C8.16223 7.47277 8.13571 7.48274 8.08708 7.45034C8.04729 7.42542 8.00971 7.44536 8.00971 7.49271C8.00971 7.53758 8.04729 7.55752 8.12023 7.55253C8.17329 7.55004 8.1755 7.5949 8.12466 7.65971L8.08708 7.70955L8.11581 7.75691C8.16002 7.8267 8.1556 7.94384 8.10918 8.00366L8.0716 8.04853L8.04729 8.01114C8.01192 7.96129 7.9655 7.96378 7.95224 8.01862C7.94561 8.05351 7.95224 8.06847 7.99203 8.10834C8.01855 8.13327 8.05834 8.15321 8.07824 8.15321C8.12908 8.15321 8.12687 8.20056 8.07381 8.24543L8.0296 8.28282L8.09592 8.29279C8.13129 8.30026 8.16223 8.31023 8.16223 8.31771C8.16223 8.35011 8.20644 8.44732 8.21971 8.44732C8.22855 8.44732 8.24623 8.42987 8.25949 8.40993V8.41242Z" fill="#FFB700" stroke="#000008" stroke-width="1.70981"/>
<path d="M9.10378 7.99877C9.16346 7.97384 9.29167 7.84922 9.29167 7.82181C9.29167 7.81184 9.2563 7.76697 9.21209 7.72211C9.12367 7.63238 9.0242 7.47536 8.99768 7.38563C8.98441 7.33578 8.92031 7.25602 8.73905 7.05663L8.49811 6.79492L8.42958 6.81486C8.38979 6.82483 8.34337 6.8348 8.32569 6.8348C8.29253 6.8348 8.29253 6.8348 8.33674 6.87468L8.38095 6.91456L8.44727 6.87468C8.50695 6.8348 8.50916 6.8348 8.51579 6.8672C8.52021 6.88465 8.51137 6.91705 8.49369 6.93948C8.47821 6.96191 8.46937 6.98933 8.47158 6.99681C8.47821 7.00429 8.46274 7.02173 8.43842 7.03669C8.39421 7.06161 8.36106 7.14386 8.39642 7.14386C8.42958 7.14386 8.50032 7.04417 8.49148 7.01176C8.48705 6.99432 8.49148 6.97687 8.4959 6.97189C8.52463 6.95444 8.52242 7.0317 8.4959 7.07158C8.47821 7.09152 8.46937 7.11645 8.47379 7.12642C8.47821 7.13389 8.46274 7.15134 8.43842 7.1663C8.39421 7.19122 8.36106 7.27347 8.39642 7.27347C8.43179 7.27347 8.50032 7.17876 8.49369 7.14386C8.48926 7.12642 8.48926 7.10648 8.4959 7.10149C8.51579 7.09152 8.52463 7.15134 8.50916 7.18125C8.5051 7.18966 8.50297 7.19909 8.50297 7.20867C8.50297 7.21825 8.5051 7.22767 8.50916 7.23608C8.52463 7.26848 8.50916 7.3283 8.48042 7.34824C8.46937 7.35572 8.476 7.37317 8.50695 7.39809C8.55116 7.43299 8.55116 7.43797 8.55116 7.59749C8.55116 7.73208 8.55558 7.76697 8.57768 7.7894C8.59979 7.81433 8.60421 7.81433 8.60421 7.7894C8.60421 7.76448 8.64842 7.72959 8.68158 7.72959C8.69263 7.72959 8.75673 7.7919 8.82526 7.86667C8.89378 7.94144 8.96673 8.00874 8.98663 8.01123L9.03526 8.0212C9.04189 8.0212 9.07283 8.01372 9.10378 7.99628V7.99877ZM8.36769 7.34824C8.36769 7.30587 8.28811 7.25851 8.19306 7.24855C8.11569 7.23608 8.11569 7.23858 8.11569 7.28095C8.11569 7.31584 8.12674 7.3308 8.18201 7.35572C8.26601 7.39809 8.36769 7.39311 8.36769 7.34824Z" fill="#FFB700" stroke="#000008" stroke-width="1.70981"/>
<path d="M8.45405 7.34307C8.49384 7.30319 8.51152 7.25832 8.48721 7.25832C8.46068 7.25832 8.38995 7.32811 8.38995 7.35802C8.38995 7.3979 8.40321 7.39541 8.45626 7.34307H8.45405ZM8.37226 7.21595C8.37447 7.19103 8.36121 7.17607 8.32142 7.15364C8.233 7.11127 8.13132 7.08884 8.107 7.11127C8.06058 7.15364 8.09153 7.20848 8.16448 7.21845C8.19542 7.22094 8.23521 7.23091 8.25511 7.24088C8.31258 7.2658 8.36563 7.25334 8.37226 7.21595ZM8.37226 7.08385C8.37668 7.05145 8.35679 7.03899 8.19542 6.97419C8.07385 6.92434 8.02079 6.94926 8.06058 7.03151C8.07385 7.05893 8.09595 7.07139 8.14679 7.08136C8.18437 7.08635 8.23521 7.09881 8.25953 7.10878C8.32584 7.1337 8.36563 7.12373 8.37005 7.08385H8.37226ZM8.45184 6.96172C8.47615 6.93431 8.49605 6.9019 8.49605 6.88695C8.49605 6.84956 8.401 6.91935 8.38774 6.9692C8.37447 7.02653 8.39879 7.02403 8.45405 6.96172H8.45184ZM8.37226 6.95425C8.37668 6.91437 8.31921 6.87947 8.20426 6.85206C8.11806 6.82962 8.08048 6.84209 8.08711 6.88695C8.09153 6.91187 8.12027 6.92932 8.19763 6.95674C8.32805 7.0016 8.36563 7.0016 8.37226 6.95425ZM8.48279 6.76981C8.6331 6.69503 8.64415 6.5081 8.50489 6.45825C8.44742 6.43831 8.41205 6.45077 8.38995 6.49315C8.37226 6.52804 8.38331 6.58786 8.40542 6.58786C8.41426 6.58786 8.42089 6.60032 8.42089 6.61278C8.42089 6.68008 8.19542 6.7075 8.10258 6.65515C8.06943 6.63771 8.05837 6.58786 8.08269 6.58786C8.10479 6.58786 8.11806 6.53801 8.107 6.50561C8.09374 6.45576 8.04953 6.4408 7.98985 6.46074C7.85059 6.50062 7.85501 6.68506 7.99648 6.75984C8.15299 6.82461 8.32429 6.82812 8.48279 6.76981Z" fill="#FFB700" stroke="#000008" stroke-width="1.70981"/>
<path d="M8.39201 6.62533C8.40085 6.61537 8.39643 6.60041 8.38316 6.59044C8.35222 6.56302 8.35443 6.52065 8.38758 6.4733C8.41411 6.4384 8.41632 6.38357 8.42516 5.84769C8.44064 4.923 8.50253 4.22761 8.58211 4.05812C8.61526 3.99332 8.61084 3.99332 8.52684 4.05812C8.41665 4.1447 8.32768 4.26131 8.26822 4.3971C8.13117 4.68373 8.08475 5.07005 8.08475 5.89754C8.08475 6.36612 8.08696 6.42843 8.11127 6.4708C8.13338 6.51567 8.13338 6.53062 8.12012 6.57549C8.10906 6.6029 8.10464 6.63281 8.10906 6.6378C8.14001 6.6702 8.36106 6.66272 8.39201 6.62533ZM9.63209 5.74301C9.63872 5.73553 9.62767 5.69316 9.60998 5.65328C9.58346 5.58848 9.57241 5.57851 9.53483 5.57851C9.35808 5.56119 9.1857 5.5071 9.02642 5.419C8.91368 5.36167 8.87168 5.34921 8.86063 5.36416C8.82526 5.40155 8.88273 5.48878 8.97115 5.53614C9.10127 5.58901 9.23756 5.62008 9.37567 5.62836C9.43536 5.62836 9.43757 5.62836 9.4022 5.68569L9.38009 5.72557H9.44641L9.55693 5.74052C9.62325 5.75797 9.62325 5.75797 9.63209 5.74301Z" fill="#FFB700" stroke="#000008" stroke-width="1.70981"/>
<path d="M10.3309 6.15946C10.3309 6.13454 10.2668 6.07223 10.2049 6.02985C10.154 5.99745 10.1452 5.99496 10.1452 6.02238C10.1452 6.06226 10.1142 6.16445 10.101 6.16445C10.0943 6.16445 10.0833 6.14451 10.0789 6.12207C10.0722 6.09715 10.0479 6.0473 10.0236 6.0149L9.9794 5.95259L9.94845 6.00991C9.9175 6.06475 9.86224 6.11709 9.83793 6.11709C9.8335 6.11709 9.83129 6.08718 9.83793 6.05478C9.84014 6.0149 9.83793 5.98499 9.82687 5.98C9.81803 5.97253 9.80919 5.97502 9.80919 5.98499C9.80919 6.00493 9.73403 6.09964 9.72077 6.09964C9.71193 6.09964 9.70309 6.07472 9.69866 6.03982L9.68098 5.92019C9.67656 5.89028 9.68761 5.91022 9.70309 5.97004L9.73845 6.07223L9.77382 6.00991C9.78983 5.98416 9.8018 5.9555 9.80919 5.92517C9.80919 5.91271 9.81582 5.90772 9.82466 5.91271C9.8335 5.91769 9.84456 5.96007 9.84898 6.00493L9.86003 6.08967L9.89982 6.03982C9.92064 6.01482 9.93985 5.98817 9.95729 5.96007C9.97277 5.93016 9.97498 5.93016 10.0081 5.96007C10.0258 5.98001 10.0546 6.02238 10.0722 6.05727C10.0899 6.09216 10.1054 6.11709 10.1076 6.1146L10.1209 6.03484L10.1297 5.96007C10.1319 5.9476 10.2491 6.03484 10.2933 6.07721C10.3198 6.10463 10.3463 6.12457 10.3508 6.11958C10.3552 6.1146 10.3596 6.07472 10.3596 6.02736C10.3596 5.95757 10.353 5.93763 10.3154 5.90025C10.2712 5.85538 10.2712 5.85538 10.2535 5.88779C10.2314 5.93016 10.2071 5.93016 10.2071 5.88779C10.2071 5.85788 10.1231 5.74073 10.1032 5.74073C10.0966 5.74073 10.0789 5.76566 10.0634 5.79806C10.0479 5.83046 10.0302 5.85538 10.0258 5.85538C10.0037 5.85538 9.88656 5.70584 9.88656 5.68091C9.88656 5.66097 9.8954 5.66596 9.91529 5.70085C9.93505 5.73359 9.95804 5.76369 9.98382 5.79058C10.028 5.83544 10.0457 5.82547 10.0634 5.73824C10.07 5.71331 10.0789 5.69337 10.0855 5.69337C10.1032 5.69337 10.2049 5.8155 10.2181 5.85538L10.2336 5.89526L10.2447 5.8504C10.2579 5.79557 10.2734 5.79556 10.2955 5.84541C10.3043 5.86535 10.3485 5.91022 10.3928 5.94013L10.4745 5.99994L10.49 5.94013C10.4989 5.90772 10.5121 5.89028 10.5165 5.90025C10.5254 5.91271 10.5033 6.01241 10.4878 6.03235C10.4878 6.03484 10.4591 6.01739 10.4303 5.99496L10.3751 5.9501V6.02985C10.3751 6.07223 10.3707 6.12457 10.3662 6.14451C10.3552 6.18439 10.3287 6.19435 10.3287 6.15946H10.3309ZM9.92192 5.52638C9.82466 5.43665 9.8114 5.41671 9.8114 5.37185L9.81361 5.32699L9.82024 5.36936C9.82466 5.39428 9.85119 5.43416 9.88214 5.46407L9.93961 5.51392L9.97276 5.46906C9.99266 5.44413 10.0081 5.41422 10.0081 5.40425C10.0081 5.37434 10.0126 5.37683 10.0789 5.44164C10.1363 5.49896 10.1386 5.49896 10.1452 5.46158C10.1518 5.44164 10.1496 5.40176 10.1452 5.37434C10.1231 5.29957 10.1275 5.2896 10.1562 5.33446L10.2093 5.40425C10.2314 5.43167 10.2336 5.43167 10.2424 5.39677C10.2491 5.37434 10.2535 5.33696 10.2535 5.31203V5.26468L10.3043 5.33197C10.3552 5.39677 10.3596 5.39927 10.3729 5.36686C10.3839 5.34942 10.3905 5.30705 10.3905 5.27465C10.3905 5.22978 10.395 5.21981 10.4038 5.23477C10.4215 5.26468 10.4104 5.33945 10.3795 5.40425L10.3574 5.4541L10.3287 5.40176C10.2911 5.33696 10.2778 5.33696 10.2557 5.40674C10.2336 5.47404 10.2181 5.47903 10.196 5.42668C10.1828 5.39428 10.1783 5.39927 10.1695 5.46906L10.1584 5.54383L10.0921 5.4865L10.0258 5.42918L9.99266 5.46656C9.97719 5.48899 9.96392 5.51641 9.96392 5.52638C9.96392 5.55131 9.94624 5.55131 9.92192 5.52638ZM10.784 5.18741C10.7509 5.15252 10.7265 5.11762 10.731 5.11264C10.7376 5.10516 10.742 5.10267 10.7442 5.10765C10.7656 5.13336 10.7877 5.1583 10.8105 5.18242C10.8857 5.27215 10.8702 5.27465 10.7862 5.18741H10.784ZM9.63456 5.05282C9.60361 5.00297 9.60582 4.97306 9.64561 4.91823C9.67214 4.88084 9.6854 4.87585 9.73403 4.88333C9.76719 4.88582 9.83571 4.91823 9.88656 4.95312C9.96003 5.00261 10.0441 5.02847 10.1297 5.02789L10.0921 4.95811C10.0435 4.87585 10.0435 4.86589 10.101 4.91573C10.1584 4.96808 10.227 4.98303 10.3817 4.97804L10.4569 4.97555L10.4127 4.9257C10.353 4.85841 10.3707 4.85093 10.4392 4.91823C10.5011 4.98054 10.4989 4.98552 10.364 5.00048C10.3078 5.00688 10.251 5.00267 10.196 4.98801C10.1209 4.96309 10.1164 4.96558 10.1319 4.993C10.1408 5.01045 10.154 5.02291 10.1607 5.02291C10.1695 5.02291 10.1761 5.03288 10.1761 5.04285C10.1761 5.07525 10.0126 5.04534 9.93298 5.00297C9.75614 4.90078 9.73403 4.89081 9.68982 4.90576C9.67805 4.91087 9.66729 4.91857 9.65818 4.92841C9.64908 4.93826 9.6418 4.95004 9.63677 4.96309C9.60803 5.04534 9.71193 5.11014 9.75393 5.03786C9.76719 5.01543 9.76498 5.00297 9.74287 4.97555C9.71193 4.94066 9.71635 4.93567 9.75614 4.95063C9.78487 4.96309 9.78708 5.04036 9.76056 5.07027C9.73182 5.10267 9.66109 5.09519 9.63456 5.05282Z" fill="#000008" stroke="#000008" stroke-width="1.70981"/>
<path d="M10.3395 4.85097C10.3174 4.82604 10.3351 4.82106 10.4345 4.81857C10.5583 4.81607 10.6335 4.79364 10.7219 4.72884C10.7926 4.67899 10.8125 4.68896 10.744 4.7413C10.6843 4.79115 10.5893 4.82604 10.4942 4.83601L10.3815 4.85346C10.3638 4.85844 10.3439 4.85595 10.3373 4.85097H10.3395Z" fill="#000008" stroke="#000008" stroke-width="1.70981"/>
<path d="M9.25871 9.01818L9.30955 8.98328L9.33165 9.01818C9.36039 9.06304 9.44218 9.06055 9.49523 9.01818L9.53723 8.98079L9.5726 9.01569C9.61681 9.06304 9.7008 9.06304 9.75607 9.01569C9.79364 8.98578 9.80028 8.98328 9.82238 9.00821C9.83785 9.02316 9.88206 9.03812 9.91964 9.0456C9.99038 9.05556 9.99038 9.05557 10.0302 8.98578C10.0655 8.92845 10.07 8.90602 10.0633 8.84869C10.0572 8.80491 10.0527 8.76083 10.0501 8.71659C10.0456 8.65179 10.0479 8.65179 10.1296 8.6169C10.1702 8.60285 10.2101 8.58621 10.249 8.56705C10.2822 8.54462 10.375 8.42249 10.375 8.39756C10.375 8.39258 10.3396 8.38261 10.2954 8.37762C10.1186 8.3527 10.0898 8.24802 10.2048 8.05361C10.3883 7.72959 10.501 7.41803 10.501 7.22113C10.501 7.1314 10.5076 7.10149 10.5165 7.12143C10.5585 7.1987 10.4833 7.53019 10.3728 7.76947L10.3286 7.86418L10.3706 7.85421C10.3927 7.84673 10.5342 7.77944 10.68 7.70466C11.0824 7.50028 11.2194 7.4604 11.4802 7.47287C11.6991 7.48284 11.7897 7.53019 11.9444 7.71214C12.0262 7.81184 12.1058 7.87913 12.2495 7.98132C12.5545 8.19567 12.5678 8.21561 12.5833 8.46984C12.5988 8.72656 12.5899 8.74152 12.4175 8.78389C12.2694 8.82128 12.1765 8.89854 12.1522 9.00821C12.139 9.06304 12.1677 9.06554 12.2407 9.0107L12.2959 8.97082L12.3202 9.0107C12.3534 9.06304 12.4197 9.06304 12.475 9.0107L12.5192 8.97331L12.5634 9.0107C12.6297 9.07301 12.7181 9.05806 12.7446 8.98079C12.7491 8.96833 12.7623 8.97082 12.7889 8.99824C12.8397 9.04809 12.9657 9.06803 12.979 9.02815C12.9834 9.01319 12.9745 8.9783 12.9569 8.94839C12.8839 8.82377 12.8596 8.76644 12.8596 8.69915C12.8596 8.60443 12.8817 8.55708 12.979 8.4823C13.0939 8.38759 13.1293 8.26796 13.0409 8.26796C12.9878 8.26796 12.9325 8.21312 12.8972 8.12589C12.8264 7.94643 12.8419 7.74704 12.948 7.41305C13.0294 7.21654 13.0702 7.0018 13.0674 6.78495C13.0674 6.60051 13.063 6.5706 13.0276 6.46841C12.9999 6.39737 12.9658 6.32971 12.9259 6.26653L12.864 6.17431L12.9414 6.09953C13.1801 5.87771 13.1315 5.51381 12.8441 5.37423C12.7557 5.32937 12.7336 5.32688 12.5789 5.32688C12.4904 5.32688 12.3468 5.34183 12.2694 5.35928C12.1655 5.37781 12.0606 5.3878 11.9555 5.38919C11.8052 5.38919 11.7787 5.3842 11.7212 5.34931C11.6615 5.31442 11.6505 5.29697 11.6394 5.21223C11.6383 5.20424 11.6356 5.19666 11.6313 5.19015C11.6271 5.18364 11.6215 5.17838 11.6151 5.17484C11.593 5.16736 11.5001 5.25958 11.4869 5.29946C11.478 5.32189 11.4736 5.3194 11.4537 5.29198C11.435 5.26482 11.4201 5.23456 11.4095 5.20226C11.3874 5.12001 11.4161 5.06019 11.5024 5.01283L11.5687 4.97794L11.5289 4.95052C11.4493 4.89319 11.3122 4.93307 11.2636 5.02529C11.2481 5.05022 11.2327 5.07514 11.2283 5.07514C11.2238 5.07514 11.1973 5.05022 11.1708 5.01782C11.0669 4.90316 11.1023 4.73368 11.2415 4.68383C11.3145 4.65641 11.3808 4.67635 11.394 4.73368C11.4161 4.81593 11.478 4.70626 11.467 4.60407C11.4604 4.53677 11.4604 4.53428 11.5024 4.53428C11.5598 4.53428 11.6792 4.61903 11.719 4.68383C11.7632 4.76109 11.7588 4.88322 11.7101 4.97295L11.6726 5.04274L11.7234 5.03277C11.7941 5.01532 11.8649 4.96547 11.9002 4.90316C11.9189 4.86348 11.9293 4.81957 11.9309 4.77469C11.9324 4.72982 11.925 4.68513 11.9091 4.64395C11.8759 4.57665 11.8803 4.56668 11.929 4.58912C12.0086 4.6265 12.0528 4.66887 12.0837 4.74115C12.1147 4.80596 12.1169 4.82091 12.1014 4.8907C12.0908 4.93319 12.0744 4.97356 12.0528 5.01034C12.0262 5.05022 12.024 5.05769 12.0461 5.05769C12.0859 5.05769 12.1655 5.01532 12.1942 4.98292C12.2097 4.96298 12.2318 4.92061 12.2429 4.88322L12.265 4.82091L12.2871 4.87076C12.3202 4.93806 12.3865 5.00037 12.4661 5.04025C12.5523 5.08013 12.5877 5.08262 12.5435 5.04523C12.5125 5.02031 12.4551 4.83337 12.475 4.81593C12.5704 4.87616 12.6575 4.95173 12.7336 5.04025C12.8596 5.16736 12.9392 5.20973 13.0541 5.20973C13.2022 5.20973 13.2884 5.06517 13.2221 4.92809C13.1845 4.84833 13.0983 4.83587 13.0453 4.90316C13.0232 4.93556 13.0165 4.96049 13.0232 4.99538C13.032 5.03526 13.0298 5.04025 12.9966 5.04025C12.9524 5.04025 12.8684 4.97794 12.7181 4.83587C12.5089 4.63284 12.2684 4.47486 12.0086 4.36978C11.8325 4.32391 11.6508 4.31294 11.4714 4.33738C11.3299 4.36729 11.1619 4.45951 11.0691 4.55671C10.9077 4.73118 10.9055 4.96298 11.0625 5.17484L11.1067 5.23466L11.0779 5.28949C11.0563 5.32877 11.0456 5.37443 11.0472 5.42062C11.0488 5.46681 11.0626 5.51142 11.0868 5.5487C11.1089 5.5836 11.131 5.61102 11.1376 5.61102C11.142 5.61102 11.1465 5.58858 11.1487 5.56117C11.1531 5.49387 11.1796 5.44901 11.2238 5.43156C11.2636 5.41411 11.2901 5.42408 11.4714 5.50633C11.6637 5.59108 11.9798 5.59606 12.3158 5.52129C12.4614 5.48337 12.613 5.48507 12.7579 5.52627C12.9171 5.60105 12.9524 5.79296 12.8375 5.93753C12.7866 6.00233 12.7402 6.02725 12.5789 6.0771C12.4384 6.11888 12.2923 6.13154 12.1478 6.11449C11.9091 6.112 11.8229 6.11698 11.7278 6.13941C11.6195 6.16434 11.5554 6.16683 11.2459 6.15935L10.8856 6.14938L10.9254 6.18428C10.9467 6.20561 10.9697 6.22479 10.9939 6.2416C11.0227 6.25905 11.0205 6.26154 10.9807 6.27899C10.9586 6.28896 10.9055 6.29644 10.8635 6.29644H10.7906L10.7817 6.36622C10.7758 6.39912 10.7758 6.43303 10.7817 6.46592C10.7906 6.49085 10.7862 6.49583 10.764 6.48586C10.7486 6.47838 10.7066 6.46592 10.669 6.45844C10.6311 6.44928 10.5941 6.43592 10.5585 6.41857C10.5165 6.39364 10.5121 6.39364 10.4966 6.42604C10.4833 6.45097 10.3595 6.55565 10.3418 6.55565C10.3339 6.49099 10.3175 6.428 10.2932 6.36872C10.2711 6.31638 10.2512 6.25656 10.2446 6.23911C10.238 6.21169 10.2335 6.2092 10.2225 6.23163C10.2158 6.24409 10.207 6.28148 10.2004 6.31139C10.1926 6.35176 10.1792 6.39047 10.1606 6.42604L10.1274 6.48088L10.1053 6.43352C10.0832 6.38367 10.0479 6.32884 10.0346 6.32884C10.0302 6.32884 10.0235 6.34379 10.0191 6.36622C10.0081 6.4061 9.92185 6.52325 9.89975 6.52325C9.89312 6.52325 9.88648 6.49085 9.88648 6.44848C9.88648 6.41109 9.87985 6.37619 9.87101 6.37619C9.86217 6.37619 9.85554 6.38866 9.85554 6.40112C9.85554 6.43103 9.78259 6.52574 9.75607 6.52574C9.74722 6.52574 9.72954 6.53571 9.71849 6.55066C9.69196 6.58307 9.66986 6.57808 9.68091 6.54069C9.68401 6.50877 9.68099 6.47648 9.67207 6.44598L9.64996 6.36622C9.64554 6.35376 9.61902 6.35875 9.56154 6.37869C9.47312 6.41109 9.44218 6.40361 9.4886 6.36373C9.50628 6.34878 9.53281 6.29644 9.54607 6.24908C9.56154 6.19923 9.58365 6.15686 9.5947 6.15187C9.61017 6.14689 9.61017 6.15187 9.59028 6.18178C9.57748 6.20074 9.56912 6.22303 9.56596 6.24659C9.56596 6.25905 9.55491 6.29145 9.54386 6.31887C9.5306 6.34379 9.52175 6.36872 9.52396 6.37121C9.52618 6.3737 9.56154 6.35875 9.60133 6.33881L9.67207 6.29893V6.33382C9.67207 6.35376 9.68091 6.40361 9.69196 6.44598L9.71186 6.52076L9.76049 6.49583C9.80912 6.47091 9.85554 6.38118 9.85554 6.3089C9.85554 6.274 9.87322 6.27899 9.88206 6.31638C9.88206 6.32635 9.89533 6.36872 9.90417 6.4086L9.92627 6.47838L9.95943 6.43352C9.97933 6.4086 10.0014 6.35875 10.0103 6.32635C10.028 6.26653 10.0545 6.23911 10.0545 6.28397C10.0545 6.31388 10.1296 6.42854 10.1429 6.41857C10.1517 6.41358 10.165 6.37121 10.1761 6.32385C10.1982 6.22416 10.2313 6.15935 10.2534 6.17431C10.2623 6.17929 10.2645 6.18926 10.2601 6.19923C10.2556 6.20422 10.2733 6.26902 10.2998 6.33881C10.3191 6.39112 10.3382 6.44346 10.3573 6.49583C10.3662 6.52076 10.375 6.52076 10.4303 6.46343C10.4634 6.42854 10.4966 6.39115 10.4988 6.37869C10.5054 6.35875 10.5121 6.36124 10.543 6.38367C10.6082 6.42249 10.6796 6.44622 10.753 6.45346C10.7574 6.44847 10.7618 6.40361 10.7618 6.35376L10.764 6.26154L10.8083 6.27151C10.8304 6.27899 10.8812 6.27899 10.9188 6.27151L10.9851 6.26154L10.9254 6.21169C10.8923 6.18677 10.8591 6.15437 10.8503 6.13941C10.8436 6.12446 10.8127 6.1095 10.7795 6.10701C10.6889 6.09704 10.5275 5.99734 10.5275 5.94749C10.5275 5.93753 10.5496 5.95497 10.5762 5.98239C10.6381 6.0447 10.722 6.08209 10.7972 6.08209H10.8503L10.8171 6.03224C10.7935 5.99359 10.7783 5.94917 10.7729 5.90263C10.7685 5.82786 10.7618 5.81789 10.6933 5.76555C10.6536 5.7338 10.6166 5.69792 10.5828 5.65837L10.5452 5.61102L10.5253 5.66834C10.5143 5.70074 10.5032 5.72567 10.4966 5.72567C10.4922 5.72567 10.4701 5.70573 10.4524 5.6833C10.4399 5.66705 10.4249 5.65353 10.4082 5.64342C10.4015 5.64342 10.3861 5.67333 10.3684 5.71071L10.3374 5.77801L10.3153 5.74062C10.2957 5.71006 10.2735 5.68168 10.249 5.65588C10.2225 5.63095 10.2114 5.61102 10.2203 5.61102C10.2291 5.61102 10.2578 5.63594 10.2866 5.66834L10.3352 5.72567L10.3573 5.6833C10.3701 5.65394 10.374 5.62067 10.3684 5.58858C10.3595 5.54372 10.3617 5.54123 10.375 5.57114C10.3941 5.59927 10.4164 5.62442 10.4413 5.64591L10.4899 5.69077L10.5231 5.62348C10.5563 5.55369 10.5563 5.55369 10.5695 5.59606C10.5916 5.6484 10.7353 5.78299 10.8569 5.86026C10.879 5.87272 10.8702 5.83284 10.8348 5.73564C10.8242 5.7037 10.8182 5.67003 10.8171 5.63594C10.8171 5.59108 10.806 5.57114 10.7552 5.52627C10.7236 5.50349 10.6971 5.47269 10.678 5.43634C10.6588 5.4 10.6474 5.3591 10.6447 5.31691C10.6381 5.27454 10.6248 5.22967 10.6137 5.21472C10.6005 5.18979 10.5961 5.20475 10.6005 5.27952C10.6049 5.33186 10.5983 5.39667 10.5872 5.42408L10.5695 5.47393L10.5563 5.43156C10.5474 5.40913 10.5121 5.36925 10.4789 5.34432C10.4457 5.3194 10.4214 5.29448 10.4258 5.28949C10.4303 5.28451 10.4656 5.30694 10.5032 5.33934C10.5629 5.39168 10.5739 5.39667 10.5828 5.37423C10.5916 5.34931 10.5828 5.23466 10.5651 5.1549C10.5563 5.11502 10.5563 5.11502 10.6005 5.16487C10.6314 5.19976 10.6491 5.24463 10.6646 5.3194C10.6823 5.41411 10.6911 5.43156 10.7685 5.50883C10.8149 5.55618 10.8569 5.59108 10.8591 5.58858C10.8635 5.5836 10.8679 5.46396 10.8724 5.3194C10.8812 5.04274 10.8724 4.97544 10.8127 4.8907L10.7817 4.84584L10.8304 4.78851C10.8848 4.72975 10.9212 4.6529 10.9343 4.56918L10.9431 4.50188L10.89 4.55921C10.8458 4.60656 10.8237 4.61653 10.7729 4.61653C10.722 4.61653 10.7022 4.60656 10.669 4.56668C10.6173 4.51062 10.5544 4.46956 10.4855 4.44705C10.459 4.43708 10.4502 4.44206 10.4502 4.462C10.4502 4.47696 10.4369 4.51684 10.4192 4.55422L10.3883 4.61903L10.322 4.54425C10.28 4.50188 10.2335 4.46449 10.196 4.45452C10.1053 4.4296 10.1009 4.4296 10.1009 4.50687C10.1009 4.62401 10.0567 4.64644 9.97711 4.56918C9.91522 4.50936 9.86659 4.4944 9.74943 4.51185L9.66102 4.52182L9.67649 4.56668C9.68975 4.60407 9.68754 4.62152 9.6588 4.66389C9.61238 4.73368 9.5527 4.76359 9.45986 4.76359C9.41565 4.76359 9.3626 4.77356 9.34049 4.78602C9.31839 4.79848 9.26092 4.81094 9.2145 4.81593C9.17029 4.82091 9.11945 4.83088 9.10397 4.83587C9.08187 4.84584 9.08187 4.83587 9.0885 4.78103C9.09955 4.69629 9.04429 4.63149 8.9625 4.63149C8.85419 4.63149 8.80556 4.74115 8.84756 4.88572C8.85615 4.91691 8.86353 4.94851 8.86966 4.98043C8.89869 5.04276 8.93766 5.09852 8.98461 5.14493C9.04208 5.20973 9.09513 5.27703 9.10397 5.29448C9.12177 5.32047 9.1444 5.34174 9.17029 5.35679L9.21892 5.3867L9.21229 5.32688C9.20565 5.26207 9.21671 5.2521 9.24765 5.29946C9.25871 5.31442 9.28744 5.34183 9.30955 5.35679C9.34713 5.38171 9.35376 5.38171 9.35376 5.36177C9.35376 5.34682 9.36039 5.31442 9.36923 5.28949L9.3847 5.24463L9.41344 5.30694C9.42891 5.34183 9.47975 5.4191 9.52618 5.48141C9.61681 5.59855 9.67428 5.73065 9.64554 5.76056C9.63228 5.77302 9.60133 5.77302 9.53502 5.75807C9.48639 5.7481 9.42449 5.74062 9.39797 5.74561C9.34713 5.75308 9.3427 5.74561 9.37586 5.70074C9.40902 5.65089 9.40239 5.64342 9.33607 5.64342C9.25871 5.64342 9.06639 5.60105 8.99124 5.56864C8.9205 5.53624 8.90282 5.54372 8.88071 5.62099L8.84313 5.76056L8.82103 5.83534L8.90061 5.82786C8.94163 5.82302 8.98227 5.81469 9.02218 5.80293C9.03784 5.79705 9.05433 5.79452 9.07081 5.79546C9.07524 5.79795 9.06418 5.82786 9.04871 5.86275L9.01776 5.92257L9.06639 5.9126C9.09292 5.90512 9.13271 5.89017 9.15481 5.87771C9.1946 5.85777 9.19902 5.85777 9.22997 5.91509C9.26755 5.98239 9.29628 5.9799 9.30292 5.90762C9.30955 5.83284 9.33165 5.84281 9.37365 5.94251C9.41344 6.03722 9.45323 6.07212 9.46207 6.01728C9.46428 5.99734 9.48418 5.96743 9.50849 5.94749C9.55712 5.91011 9.59249 5.92257 9.61238 5.9799C9.63449 6.04221 9.58586 6.10452 9.44881 6.19923C9.32189 6.27824 9.21268 6.38895 9.12954 6.52287C9.0464 6.65679 8.99153 6.81038 8.96913 6.97189C8.92713 7.266 9.05755 7.57007 9.31397 7.7919C9.43776 7.89658 9.63449 8.00625 9.62123 7.96637C9.56817 7.78442 9.57038 7.44296 9.62344 7.38563C9.63228 7.37566 9.63007 7.41056 9.61681 7.4629C9.5726 7.6598 9.5947 7.81433 9.70522 8.17823C9.80249 8.50723 9.78922 8.6493 9.64775 8.74152C9.60354 8.77143 9.57481 8.77641 9.45323 8.77392C9.3206 8.77392 9.30513 8.77392 9.26313 8.8138C9.21234 8.87228 9.1791 8.94725 9.16808 9.02815C9.16808 9.06055 9.19902 9.05556 9.2565 9.01818H9.25871Z" fill="#FFB700"/>
<path d="M11.4028 9.01061L11.4581 8.97073L11.4956 9.01061C11.5443 9.06295 11.604 9.06046 11.6504 9.00811C11.6725 8.98319 11.6902 8.96824 11.6924 8.97073L11.7123 9.01061C11.7233 9.03304 11.7476 9.04301 11.7919 9.04799C11.8427 9.05049 11.8582 9.04799 11.8803 9.0131L11.9024 8.97073L11.9576 9.01061C12.108 9.12027 12.1875 9.00562 12.119 8.77881C12.0858 8.66416 12.1057 8.59936 12.2141 8.45479C12.2605 8.39248 12.2981 8.32519 12.2981 8.30525C12.2981 8.27783 12.2892 8.27285 12.2273 8.27534C12.1698 8.27534 12.1522 8.26786 12.1212 8.23047C12.0704 8.16816 12.0748 8.09588 12.1301 8.01612L12.1743 7.95381L12.0947 7.894C12.0312 7.84109 11.972 7.78187 11.9179 7.71703C11.8696 7.65282 11.8106 7.59996 11.7442 7.56147C11.6779 7.52298 11.6054 7.49962 11.531 7.49271L11.4271 7.48025V7.56998C11.4271 7.68214 11.4758 7.79181 11.604 7.97625C11.7499 8.18561 11.7587 8.21801 11.7653 8.49218L11.772 8.72398L11.7278 8.76884C11.6902 8.80872 11.6747 8.8162 11.5509 8.82367C11.4338 8.83115 11.4072 8.83863 11.3741 8.87352C11.3353 8.90543 11.3085 8.95255 11.2989 9.00562C11.2923 9.04301 11.2945 9.05049 11.3188 9.05049C11.3343 9.05049 11.3719 9.03304 11.4028 9.01061ZM8.25949 8.41242C8.27286 8.39029 8.28052 8.3644 8.2816 8.33765C8.2816 8.31272 8.29486 8.30276 8.35234 8.29279L8.42086 8.28282L8.37665 8.24044C8.32139 8.1906 8.31476 8.15321 8.36339 8.15321C8.41202 8.15321 8.4916 8.09838 8.50486 8.056C8.51149 8.03606 8.50486 8.01114 8.49602 7.99868C8.46949 7.96378 8.41865 7.96877 8.40981 8.00865C8.39876 8.04853 8.38328 8.04853 8.34349 8.00865C8.28823 7.94634 8.28602 7.81922 8.34349 7.74445C8.36781 7.70956 8.36781 7.70955 8.33465 7.67217C8.29928 7.63229 8.27276 7.55752 8.29044 7.53758C8.29486 7.53259 8.3236 7.53758 8.35234 7.55004C8.39655 7.56499 8.41202 7.56499 8.4297 7.55004C8.48054 7.50268 8.42528 7.44286 8.34128 7.45782C8.30592 7.4628 8.29265 7.45782 8.28823 7.43788C8.28381 7.42292 8.25507 7.40298 8.22192 7.39302C8.16223 7.37557 8.16223 7.37557 8.16223 7.42292C8.16223 7.47277 8.13571 7.48274 8.08708 7.45034C8.04729 7.42542 8.00971 7.44536 8.00971 7.49271C8.00971 7.53758 8.04729 7.55752 8.12023 7.55253C8.17329 7.55004 8.1755 7.5949 8.12466 7.65971L8.08708 7.70955L8.11581 7.75691C8.16002 7.8267 8.1556 7.94384 8.10918 8.00366L8.0716 8.04853L8.04729 8.01114C8.01192 7.96129 7.9655 7.96378 7.95224 8.01862C7.94561 8.05351 7.95224 8.06847 7.99203 8.10834C8.01855 8.13327 8.05834 8.15321 8.07824 8.15321C8.12908 8.15321 8.12687 8.20056 8.07381 8.24543L8.0296 8.28282L8.09592 8.29279C8.13129 8.30026 8.16223 8.31023 8.16223 8.31771C8.16223 8.35011 8.20644 8.44732 8.21971 8.44732C8.22855 8.44732 8.24623 8.42987 8.25949 8.40993V8.41242Z" fill="#FFB700"/>
<path d="M9.10378 7.99877C9.16346 7.97384 9.29167 7.84922 9.29167 7.82181C9.29167 7.81184 9.2563 7.76697 9.21209 7.72211C9.12367 7.63238 9.0242 7.47536 8.99768 7.38563C8.98441 7.33578 8.92031 7.25602 8.73905 7.05663L8.49811 6.79492L8.42958 6.81486C8.38979 6.82483 8.34337 6.8348 8.32569 6.8348C8.29253 6.8348 8.29253 6.8348 8.33674 6.87468L8.38095 6.91456L8.44727 6.87468C8.50695 6.8348 8.50916 6.8348 8.51579 6.8672C8.52021 6.88465 8.51137 6.91705 8.49369 6.93948C8.47821 6.96191 8.46937 6.98933 8.47158 6.99681C8.47821 7.00429 8.46274 7.02173 8.43842 7.03669C8.39421 7.06161 8.36106 7.14386 8.39642 7.14386C8.42958 7.14386 8.50032 7.04417 8.49148 7.01176C8.48705 6.99432 8.49148 6.97687 8.4959 6.97189C8.52463 6.95444 8.52242 7.0317 8.4959 7.07158C8.47821 7.09152 8.46937 7.11645 8.47379 7.12642C8.47821 7.13389 8.46274 7.15134 8.43842 7.1663C8.39421 7.19122 8.36106 7.27347 8.39642 7.27347C8.43179 7.27347 8.50032 7.17876 8.49369 7.14386C8.48926 7.12642 8.48926 7.10648 8.4959 7.10149C8.51579 7.09152 8.52463 7.15134 8.50916 7.18125C8.5051 7.18966 8.50297 7.19909 8.50297 7.20867C8.50297 7.21825 8.5051 7.22767 8.50916 7.23608C8.52463 7.26848 8.50916 7.3283 8.48042 7.34824C8.46937 7.35572 8.476 7.37317 8.50695 7.39809C8.55116 7.43299 8.55116 7.43797 8.55116 7.59749C8.55116 7.73208 8.55558 7.76697 8.57768 7.7894C8.59979 7.81433 8.60421 7.81433 8.60421 7.7894C8.60421 7.76448 8.64842 7.72959 8.68158 7.72959C8.69263 7.72959 8.75673 7.7919 8.82526 7.86667C8.89378 7.94144 8.96673 8.00874 8.98663 8.01123L9.03526 8.0212C9.04189 8.0212 9.07283 8.01372 9.10378 7.99628V7.99877ZM8.36769 7.34824C8.36769 7.30587 8.28811 7.25851 8.19306 7.24855C8.11569 7.23608 8.11569 7.23858 8.11569 7.28095C8.11569 7.31584 8.12674 7.3308 8.18201 7.35572C8.26601 7.39809 8.36769 7.39311 8.36769 7.34824Z" fill="#FFB700"/>
<path d="M8.45405 7.34307C8.49384 7.30319 8.51152 7.25832 8.48721 7.25832C8.46068 7.25832 8.38995 7.32811 8.38995 7.35802C8.38995 7.3979 8.40321 7.39541 8.45626 7.34307H8.45405ZM8.37226 7.21595C8.37447 7.19103 8.36121 7.17607 8.32142 7.15364C8.233 7.11127 8.13132 7.08884 8.107 7.11127C8.06058 7.15364 8.09153 7.20848 8.16448 7.21845C8.19542 7.22094 8.23521 7.23091 8.25511 7.24088C8.31258 7.2658 8.36563 7.25334 8.37226 7.21595ZM8.37226 7.08385C8.37668 7.05145 8.35679 7.03899 8.19542 6.97419C8.07385 6.92434 8.02079 6.94926 8.06058 7.03151C8.07385 7.05893 8.09595 7.07139 8.14679 7.08136C8.18437 7.08635 8.23521 7.09881 8.25953 7.10878C8.32584 7.1337 8.36563 7.12373 8.37005 7.08385H8.37226ZM8.45184 6.96172C8.47615 6.93431 8.49605 6.9019 8.49605 6.88695C8.49605 6.84956 8.401 6.91935 8.38774 6.9692C8.37447 7.02653 8.39879 7.02403 8.45405 6.96172H8.45184ZM8.37226 6.95425C8.37668 6.91437 8.31921 6.87947 8.20426 6.85206C8.11806 6.82962 8.08048 6.84209 8.08711 6.88695C8.09153 6.91187 8.12027 6.92932 8.19763 6.95674C8.32805 7.0016 8.36563 7.0016 8.37226 6.95425ZM8.48279 6.76981C8.6331 6.69503 8.64415 6.5081 8.50489 6.45825C8.44742 6.43831 8.41205 6.45077 8.38995 6.49315C8.37226 6.52804 8.38331 6.58786 8.40542 6.58786C8.41426 6.58786 8.42089 6.60032 8.42089 6.61278C8.42089 6.68008 8.19542 6.7075 8.10258 6.65515C8.06943 6.63771 8.05837 6.58786 8.08269 6.58786C8.10479 6.58786 8.11806 6.53801 8.107 6.50561C8.09374 6.45576 8.04953 6.4408 7.98985 6.46074C7.85059 6.50062 7.85501 6.68506 7.99648 6.75984C8.15299 6.82461 8.32429 6.82812 8.48279 6.76981Z" fill="#FFB700"/>
<path d="M8.39201 6.62533C8.40085 6.61537 8.39643 6.60041 8.38316 6.59044C8.35222 6.56302 8.35443 6.52065 8.38758 6.4733C8.41411 6.4384 8.41632 6.38357 8.42516 5.84769C8.44064 4.923 8.50253 4.22761 8.58211 4.05812C8.61526 3.99332 8.61084 3.99332 8.52684 4.05812C8.41665 4.1447 8.32768 4.26131 8.26822 4.3971C8.13117 4.68373 8.08475 5.07005 8.08475 5.89754C8.08475 6.36612 8.08696 6.42843 8.11127 6.4708C8.13338 6.51567 8.13338 6.53062 8.12012 6.57549C8.10906 6.6029 8.10464 6.63281 8.10906 6.6378C8.14001 6.6702 8.36106 6.66272 8.39201 6.62533ZM9.63209 5.74301C9.63872 5.73553 9.62767 5.69316 9.60998 5.65328C9.58346 5.58848 9.57241 5.57851 9.53483 5.57851C9.35808 5.56119 9.1857 5.5071 9.02642 5.419C8.91368 5.36167 8.87168 5.34921 8.86063 5.36416C8.82526 5.40155 8.88273 5.48878 8.97115 5.53614C9.10127 5.58901 9.23756 5.62008 9.37567 5.62836C9.43536 5.62836 9.43757 5.62836 9.4022 5.68569L9.38009 5.72557H9.44641L9.55693 5.74052C9.62325 5.75797 9.62325 5.75797 9.63209 5.74301Z" fill="#FFB700"/>
<path d="M10.3309 6.15946C10.3309 6.13454 10.2668 6.07223 10.2049 6.02985C10.154 5.99745 10.1452 5.99496 10.1452 6.02238C10.1452 6.06226 10.1142 6.16445 10.101 6.16445C10.0943 6.16445 10.0833 6.14451 10.0789 6.12207C10.0722 6.09715 10.0479 6.0473 10.0236 6.0149L9.9794 5.95259L9.94845 6.00991C9.9175 6.06475 9.86224 6.11709 9.83793 6.11709C9.8335 6.11709 9.83129 6.08718 9.83793 6.05478C9.84014 6.0149 9.83793 5.98499 9.82687 5.98C9.81803 5.97253 9.80919 5.97502 9.80919 5.98499C9.80919 6.00493 9.73403 6.09964 9.72077 6.09964C9.71193 6.09964 9.70309 6.07472 9.69866 6.03982L9.68098 5.92019C9.67656 5.89028 9.68761 5.91022 9.70309 5.97004L9.73845 6.07223L9.77382 6.00991C9.78983 5.98416 9.8018 5.9555 9.80919 5.92517C9.80919 5.91271 9.81582 5.90772 9.82466 5.91271C9.8335 5.91769 9.84456 5.96007 9.84898 6.00493L9.86003 6.08967L9.89982 6.03982C9.92064 6.01482 9.93985 5.98817 9.95729 5.96007C9.97277 5.93016 9.97498 5.93016 10.0081 5.96007C10.0258 5.98001 10.0546 6.02238 10.0722 6.05727C10.0899 6.09216 10.1054 6.11709 10.1076 6.1146L10.1209 6.03484L10.1297 5.96007C10.1319 5.9476 10.2491 6.03484 10.2933 6.07721C10.3198 6.10463 10.3463 6.12457 10.3508 6.11958C10.3552 6.1146 10.3596 6.07472 10.3596 6.02736C10.3596 5.95757 10.353 5.93763 10.3154 5.90025C10.2712 5.85538 10.2712 5.85538 10.2535 5.88779C10.2314 5.93016 10.2071 5.93016 10.2071 5.88779C10.2071 5.85788 10.1231 5.74073 10.1032 5.74073C10.0966 5.74073 10.0789 5.76566 10.0634 5.79806C10.0479 5.83046 10.0302 5.85538 10.0258 5.85538C10.0037 5.85538 9.88656 5.70584 9.88656 5.68091C9.88656 5.66097 9.8954 5.66596 9.91529 5.70085C9.93505 5.73359 9.95804 5.76369 9.98382 5.79058C10.028 5.83544 10.0457 5.82547 10.0634 5.73824C10.07 5.71331 10.0789 5.69337 10.0855 5.69337C10.1032 5.69337 10.2049 5.8155 10.2181 5.85538L10.2336 5.89526L10.2447 5.8504C10.2579 5.79557 10.2734 5.79556 10.2955 5.84541C10.3043 5.86535 10.3485 5.91022 10.3928 5.94013L10.4745 5.99994L10.49 5.94013C10.4989 5.90772 10.5121 5.89028 10.5165 5.90025C10.5254 5.91271 10.5033 6.01241 10.4878 6.03235C10.4878 6.03484 10.4591 6.01739 10.4303 5.99496L10.3751 5.9501V6.02985C10.3751 6.07223 10.3707 6.12457 10.3662 6.14451C10.3552 6.18439 10.3287 6.19435 10.3287 6.15946H10.3309ZM9.92192 5.52638C9.82466 5.43665 9.8114 5.41671 9.8114 5.37185L9.81361 5.32699L9.82024 5.36936C9.82466 5.39428 9.85119 5.43416 9.88214 5.46407L9.93961 5.51392L9.97276 5.46906C9.99266 5.44413 10.0081 5.41422 10.0081 5.40425C10.0081 5.37434 10.0126 5.37683 10.0789 5.44164C10.1363 5.49896 10.1386 5.49896 10.1452 5.46158C10.1518 5.44164 10.1496 5.40176 10.1452 5.37434C10.1231 5.29957 10.1275 5.2896 10.1562 5.33446L10.2093 5.40425C10.2314 5.43167 10.2336 5.43167 10.2424 5.39677C10.2491 5.37434 10.2535 5.33696 10.2535 5.31203V5.26468L10.3043 5.33197C10.3552 5.39677 10.3596 5.39927 10.3729 5.36686C10.3839 5.34942 10.3905 5.30705 10.3905 5.27465C10.3905 5.22978 10.395 5.21981 10.4038 5.23477C10.4215 5.26468 10.4104 5.33945 10.3795 5.40425L10.3574 5.4541L10.3287 5.40176C10.2911 5.33696 10.2778 5.33696 10.2557 5.40674C10.2336 5.47404 10.2181 5.47903 10.196 5.42668C10.1828 5.39428 10.1783 5.39927 10.1695 5.46906L10.1584 5.54383L10.0921 5.4865L10.0258 5.42918L9.99266 5.46656C9.97719 5.48899 9.96392 5.51641 9.96392 5.52638C9.96392 5.55131 9.94624 5.55131 9.92192 5.52638ZM10.784 5.18741C10.7509 5.15252 10.7265 5.11762 10.731 5.11264C10.7376 5.10516 10.742 5.10267 10.7442 5.10765C10.7656 5.13336 10.7877 5.1583 10.8105 5.18242C10.8857 5.27215 10.8702 5.27465 10.7862 5.18741H10.784ZM9.63456 5.05282C9.60361 5.00297 9.60582 4.97306 9.64561 4.91823C9.67214 4.88084 9.6854 4.87585 9.73403 4.88333C9.76719 4.88582 9.83571 4.91823 9.88656 4.95312C9.96003 5.00261 10.0441 5.02847 10.1297 5.02789L10.0921 4.95811C10.0435 4.87585 10.0435 4.86589 10.101 4.91573C10.1584 4.96808 10.227 4.98303 10.3817 4.97804L10.4569 4.97555L10.4127 4.9257C10.353 4.85841 10.3707 4.85093 10.4392 4.91823C10.5011 4.98054 10.4989 4.98552 10.364 5.00048C10.3078 5.00688 10.251 5.00267 10.196 4.98801C10.1209 4.96309 10.1164 4.96558 10.1319 4.993C10.1408 5.01045 10.154 5.02291 10.1607 5.02291C10.1695 5.02291 10.1761 5.03288 10.1761 5.04285C10.1761 5.07525 10.0126 5.04534 9.93298 5.00297C9.75614 4.90078 9.73403 4.89081 9.68982 4.90576C9.67805 4.91087 9.66729 4.91857 9.65818 4.92841C9.64908 4.93826 9.6418 4.95004 9.63677 4.96309C9.60803 5.04534 9.71193 5.11014 9.75393 5.03786C9.76719 5.01543 9.76498 5.00297 9.74287 4.97555C9.71193 4.94066 9.71635 4.93567 9.75614 4.95063C9.78487 4.96309 9.78708 5.04036 9.76056 5.07027C9.73182 5.10267 9.66109 5.09519 9.63456 5.05282Z" fill="#000008"/>
<path d="M10.3395 4.85097C10.3174 4.82604 10.3351 4.82106 10.4345 4.81857C10.5583 4.81607 10.6335 4.79364 10.7219 4.72884C10.7926 4.67899 10.8125 4.68896 10.744 4.7413C10.6843 4.79115 10.5893 4.82604 10.4942 4.83601L10.3815 4.85346C10.3638 4.85844 10.3439 4.85595 10.3373 4.85097H10.3395Z" fill="#000008"/>
</svg>
