<svg width="23" height="22" viewBox="0 0 23 22" fill="none" xmlns="http://www.w3.org/2000/svg">
<path d="M20.8715 0H2.12422C1.22617 0 0.5 0.708984 0.5 1.58555V20.4102C0.5 21.2867 1.22617 22 2.12422 22H20.8715C21.7695 22 22.5 21.2867 22.5 20.4145V1.58555C22.5 0.708984 21.7695 0 20.8715 0ZM7.02695 18.7473H3.76133V8.2457H7.02695V18.7473ZM5.39414 6.81484C4.3457 6.81484 3.49922 5.96836 3.49922 4.92422C3.49922 3.88008 4.3457 3.03359 5.39414 3.03359C6.43828 3.03359 7.28477 3.88008 7.28477 4.92422C7.28477 5.96406 6.43828 6.81484 5.39414 6.81484ZM19.2473 18.7473H15.9859V13.6426C15.9859 12.4266 15.9645 10.8582 14.2887 10.8582C12.5914 10.8582 12.3336 12.1859 12.3336 13.5566V18.7473H9.07656V8.2457H12.2047V9.68086H12.2477C12.6816 8.85586 13.7473 7.98359 15.3328 7.98359C18.6371 7.98359 19.2473 10.1578 19.2473 12.9852V18.7473Z" fill="#13182A"/>
</svg>
