<svg width="23" height="18" viewBox="0 0 23 18" fill="none" xmlns="http://www.w3.org/2000/svg">
<path d="M7.42098 17.9377C15.7208 17.9377 20.2618 11.0597 20.2618 5.09689C20.2618 4.90353 20.2575 4.70587 20.2489 4.51251C21.1322 3.87369 21.8945 3.08242 22.5 2.17587C21.6773 2.5419 20.8038 2.78095 19.9094 2.88486C20.8512 2.32035 21.5563 1.43353 21.8941 0.388803C21.0082 0.913861 20.0393 1.28424 19.029 1.48408C18.3483 0.760781 17.4482 0.281873 16.468 0.121397C15.4879 -0.03908 14.4821 0.127813 13.6063 0.596272C12.7304 1.06473 12.0333 1.80866 11.6227 2.71305C11.2121 3.61744 11.1108 4.63191 11.3346 5.59962C9.54062 5.5096 7.78561 5.04358 6.18332 4.23177C4.58102 3.41997 3.16722 2.2805 2.03355 0.88724C1.45737 1.88066 1.28105 3.05619 1.54044 4.17493C1.79984 5.29368 2.47547 6.27168 3.43004 6.91017C2.71341 6.88742 2.01248 6.69447 1.38516 6.34728V6.40314C1.38451 7.44565 1.74492 8.45622 2.40512 9.26306C3.06531 10.0699 3.98455 10.6232 5.00656 10.8289C4.34272 11.0106 3.64598 11.037 2.97027 10.9063C3.25867 11.8028 3.81978 12.587 4.57529 13.1493C5.3308 13.7116 6.24303 14.0241 7.18465 14.043C5.58606 15.2987 3.61133 15.9798 1.57852 15.9766C1.21801 15.976 0.857866 15.9539 0.5 15.9104C2.56512 17.2353 4.9674 17.939 7.42098 17.9377Z" fill="#13182A"/>
</svg>
